<?xml version="1.0" encoding="UTF-8"?>
<svg version="1.1" xmlns="http://www.w3.org/2000/svg" width="256" height="256">
<path d="M0 0 C4.68901357 2.34450679 6.28199718 4.15908551 8 9 C9.23153809 8.99476318 10.46307617 8.98952637 11.73193359 8.98413086 C16.29035722 8.96606447 20.84877767 8.95456196 25.40722656 8.94506836 C27.38216687 8.9400319 29.35710343 8.93320249 31.33203125 8.92456055 C34.16667605 8.91246492 37.00127166 8.9067649 39.8359375 8.90234375 C40.72243988 8.89718246 41.60894226 8.89202118 42.52230835 8.88670349 C48.77225659 8.88612829 48.77225659 8.88612829 51 10 C51 24.85 51 39.7 51 55 C51.99 54.67 52.98 54.34 54 54 C55.37267923 53.90869478 56.74928918 53.86934475 58.125 53.8671875 C58.91390625 53.86589844 59.7028125 53.86460938 60.515625 53.86328125 C61.74539062 53.86908203 61.74539062 53.86908203 63 53.875 C63.81984375 53.87113281 64.6396875 53.86726563 65.484375 53.86328125 C66.66773438 53.86521484 66.66773438 53.86521484 67.875 53.8671875 C68.59429687 53.86831543 69.31359375 53.86944336 70.0546875 53.87060547 C72 54 72 54 75 55 C74.99777939 54.43845718 74.99555878 53.87691437 74.99327087 53.2983551 C74.97121694 47.47519565 74.95609295 41.65204799 74.94506836 35.82885742 C74.94002692 33.65307127 74.93319393 31.47728853 74.92456055 29.30151367 C74.91248662 26.18146933 74.90676995 23.06146962 74.90234375 19.94140625 C74.89718246 18.96224747 74.89202118 17.98308868 74.88670349 16.97425842 C74.88662796 16.07340012 74.88655243 15.17254181 74.88647461 14.24438477 C74.884254 13.44718521 74.88203339 12.64998566 74.87974548 11.82862854 C75 10 75 10 76 9 C79.10251201 8.91125865 82.1826812 8.88481545 85.28515625 8.90234375 C86.21597519 8.9037587 87.14679413 8.90517365 88.1058197 8.90663147 C91.09141191 8.91224828 94.07693029 8.9248036 97.0625 8.9375 C99.08137913 8.94251284 101.10025943 8.94707612 103.11914062 8.95117188 C108.07945572 8.96222317 113.03971532 8.97949905 118 9 C118.27585938 8.22269531 118.55171875 7.44539063 118.8359375 6.64453125 C120.48402505 2.90038604 122.36910713 1.81544643 126 0 C129.86804461 -0.6812603 133.10682475 -0.38568931 136.75 1.1875 C142.66492147 5.95229785 142.66492147 5.95229785 143.3515625 10.1484375 C143.52429523 14.87503311 143.17580417 18.29489513 140 22 C136.74726638 24.73525327 134.73561934 25.90804758 130.5 26.4375 C125.69777692 25.83722212 122.40935855 24.55029441 119.125 20.9375 C118 19 118 19 118 17 C106.45 17 94.9 17 83 17 C83 29.87 83 42.74 83 56 C86.3 56.33 89.6 56.66 93 57 C95.79911001 57.71851577 98.46029681 58.46321864 101.1875 59.375 C101.84685547 59.58382812 102.50621094 59.79265625 103.18554688 60.0078125 C107.57841247 61.42737892 111.78059192 63.12835595 116 65 C115.98952637 64.34402832 115.97905273 63.68805664 115.96826172 63.01220703 C115.92677497 60.04984342 115.90069738 57.08754084 115.875 54.125 C115.85824219 53.09246094 115.84148437 52.05992188 115.82421875 50.99609375 C115.81455078 49.51689453 115.81455078 49.51689453 115.8046875 48.0078125 C115.79421387 47.09660645 115.78374023 46.18540039 115.77294922 45.24658203 C116 43 116 43 118 41 C120.98095703 40.77294922 120.98095703 40.77294922 124.7578125 40.8046875 C125.75238968 40.80893234 125.75238968 40.80893234 126.76705933 40.81326294 C128.88655583 40.82446565 131.00563104 40.84956949 133.125 40.875 C134.56119182 40.88502972 135.99739025 40.89415559 137.43359375 40.90234375 C140.95586628 40.924405 144.47789203 40.95893506 148 41 C148.27714844 40.22269531 148.55429688 39.44539063 148.83984375 38.64453125 C150.49648812 34.86827456 152.3193442 33.8068674 156 32 C160.82136205 31.14612729 164.08778965 31.51901636 168.4375 33.8125 C171.22393115 36.19116073 172.82168369 37.8043422 173.37109375 41.48828125 C173.57254827 50.05602358 173.57254827 50.05602358 170.8125 53.5625 C166.64616263 57.17332572 164.61073443 58.02556721 159.0625 57.9375 C154.51113946 57.23065992 152.21711484 55.21711484 149 52 C148.67 51.34 148.34 50.68 148 50 C140.08 49.67 132.16 49.34 124 49 C122.83746759 60.22889828 122.83746759 60.22889828 126.31005859 70.73535156 C129.80945315 73.7187496 133.91196926 75.70050706 137.96777344 77.82080078 C141.32315828 79.76776244 144.07068161 82.27741331 146.875 84.9375 C147.40778564 85.44200684 147.94057129 85.94651367 148.48950195 86.46630859 C155.82740316 93.58385583 164.34680748 102.29521466 168 112 C167.42092415 123.80062677 155.23278262 135.23349464 147 143 C129.94399752 158 129.94399752 158 124 158 C124 164.93 124 171.86 124 179 C127.87888116 179.02104819 131.74710242 178.99340971 135.625 178.9375 C137.26662109 178.95393555 137.26662109 178.95393555 138.94140625 178.97070312 C144.87673742 178.98404937 144.87673742 178.98404937 150.00683594 176.41455078 C151.60216372 174.55740987 151.60216372 174.55740987 152.82958984 172.59594727 C154 171 154 171 157 170 C162.71592544 169.46076175 165.55802329 170.36565542 170 174 C173.3982934 177.79381923 173.50861092 180.57913329 173.35546875 185.5234375 C172.83333446 189.16116429 171.43397635 191.29558184 169 194 C164.7808575 196.5597308 160.81328777 196.67569551 156 196 C151.2729983 193.67947189 149.72951491 191.850686 148 187 C147.10168457 187.01047363 146.20336914 187.02094727 145.27783203 187.03173828 C141.94935553 187.0657947 138.62106378 187.09088618 135.29248047 187.10986328 C133.85104453 187.11992963 132.40962905 187.1335838 130.96826172 187.15087891 C128.89806066 187.17510012 126.82812924 187.18647641 124.7578125 187.1953125 C122.88826904 187.21102295 122.88826904 187.21102295 120.98095703 187.22705078 C118 187 118 187 116 185 C115.77294922 182.75341797 115.77294922 182.75341797 115.8046875 179.9921875 C115.81435547 178.51298828 115.81435547 178.51298828 115.82421875 177.00390625 C115.84935547 175.45509766 115.84935547 175.45509766 115.875 173.875 C115.88402344 172.83472656 115.89304688 171.79445312 115.90234375 170.72265625 C115.92596253 168.14820908 115.95889851 165.57421788 116 163 C114.98421875 163.39832031 113.9684375 163.79664063 112.921875 164.20703125 C92.78144568 172 92.78144568 172 83 172 C83 184.87 83 197.74 83 211 C94.55 211 106.1 211 118 211 C118.66 209.35 119.32 207.7 120 206 C123.23263284 203.1522044 125.79068659 201.74015576 130.0625 201.5625 C135.28909315 202.14323257 137.51700872 203.63725126 141.3125 207.125 C143.6676558 211.13748765 143.67080279 214.45344774 143 219 C141.16927416 223.57681459 138.33682792 225.7481855 134 228 C128.77969469 228.65253816 125.42736058 227.81741128 121 225 C118 221.7 118 221.7 118 219 C116.15269287 219.00785522 116.15269287 219.00785522 114.26806641 219.01586914 C109.70964278 219.03393553 105.15122233 219.04543804 100.59277344 219.05493164 C98.61783313 219.0599681 96.64289657 219.06679751 94.66796875 219.07543945 C91.83332395 219.08753508 88.99872834 219.0932351 86.1640625 219.09765625 C85.27756012 219.10281754 84.39105774 219.10797882 83.47769165 219.11329651 C77.22774341 219.11387171 77.22774341 219.11387171 75 218 C75 203.15 75 188.3 75 173 C73.68 173.33 72.36 173.66 71 174 C68.3220901 174.09484264 65.67677951 174.13954771 63 174.125 C62.2884375 174.12886719 61.576875 174.13273438 60.84375 174.13671875 C57.32072441 174.13014594 54.44426598 173.86106649 51 173 C51 187.85 51 202.7 51 218 C47.56395235 219.71802382 43.61561104 219.1196618 39.8359375 219.09765625 C38.92872955 219.0962413 38.02152161 219.09482635 37.08682251 219.09336853 C34.18284845 219.08776096 31.27895085 219.07520718 28.375 219.0625 C26.40885528 219.05748598 24.44270935 219.0529229 22.4765625 219.04882812 C17.6510121 219.03778906 12.82551903 219.02051935 8 219 C7.56494141 220.18335938 7.56494141 220.18335938 7.12109375 221.390625 C5.84188046 224.36802735 4.73778218 225.34073807 2 227 C-1.61930698 228.20643566 -4.19231005 228.32268559 -8 228 C-12.33682792 225.7481855 -15.16927416 223.57681459 -17 219 C-17.75913492 214.92827636 -17.90952594 211.53875773 -15.7578125 207.8984375 C-13.28655834 204.91080187 -11.73428459 203.24476153 -8 202 C-3.24545226 201.61028297 -0.92166739 201.5391663 3.375 203.6875 C6 206 6 206 8 211 C19.55 211 31.1 211 43 211 C43 198.13 43 185.26 43 172 C40.03 171.67 37.06 171.34 34 171 C31.07959313 170.27120906 28.24446055 169.50791094 25.375 168.625 C24.6634375 168.41617188 23.951875 168.20734375 23.21875 167.9921875 C18.65543067 166.62152016 14.34677049 164.95091274 10 163 C10.01571045 163.98395752 10.01571045 163.98395752 10.03173828 164.98779297 C10.07322503 167.95015658 10.09930262 170.91245916 10.125 173.875 C10.14175781 174.90753906 10.15851563 175.94007813 10.17578125 177.00390625 C10.18544922 178.48310547 10.18544922 178.48310547 10.1953125 179.9921875 C10.21102295 181.35899658 10.21102295 181.35899658 10.22705078 182.75341797 C10 185 10 185 8 187 C5.01904297 187.22705078 5.01904297 187.22705078 1.2421875 187.1953125 C0.57913605 187.1924826 -0.08391541 187.18965271 -0.76705933 187.18673706 C-2.88655583 187.17553435 -5.00563104 187.15043051 -7.125 187.125 C-8.56119182 187.11497028 -9.99739025 187.10584441 -11.43359375 187.09765625 C-14.95586628 187.075595 -18.47789203 187.04106494 -22 187 C-22.27714844 187.77730469 -22.55429687 188.55460938 -22.83984375 189.35546875 C-24.49648812 193.13172544 -26.3193442 194.1931326 -30 196 C-34.79037069 196.84838408 -38.08720059 196.46469788 -42.4375 194.25 C-45.49294678 191.56716868 -46.74102473 189.6519896 -47.37109375 185.6328125 C-47.4867426 181.2653677 -47.56264275 178.01363987 -44.75 174.5 C-41.07855657 171.16232416 -39.51364648 170.13760423 -34.5625 169.6875 C-30.6910928 170.02709712 -29.03079019 170.6245158 -26 173 C-25.54496094 173.845625 -25.08992188 174.69125 -24.62109375 175.5625 C-20.34317717 179.54077115 -15.38143924 178.78310154 -9.75 178.8125 C-8.62335937 178.83763672 -7.49671875 178.86277344 -6.3359375 178.88867188 C-3.55766734 178.94753353 -0.77879536 178.97663093 2 179 C2 172.07 2 165.14 2 158 C0.35 157.34 -1.3 156.68 -3 156 C-17.99335608 147.97471005 -35.90403322 132.19406827 -42 116 C-41.42820053 104.03986105 -28.91333475 92.43866755 -20.51367188 84.61572266 C-15.21300007 79.85237449 -10.26975591 76.12390669 -3.8125 73.125 C-0.95495715 71.66325737 -0.95495715 71.66325737 1 69 C2.63405024 62.50746764 2.31867077 55.64132444 2 49 C-1.89730069 48.99372776 -5.79091357 49.0533798 -9.6875 49.125 C-10.79029297 49.12242188 -11.89308594 49.11984375 -13.02929688 49.1171875 C-18.75675566 49.07230162 -18.75675566 49.07230162 -23.80395508 51.34301758 C-25.31729183 53.12926418 -25.31729183 53.12926418 -27 56 C-30.62238826 58.25175486 -33.79678124 58.26996011 -38 57.6171875 C-41.47683513 56.54425791 -43.44323921 54.55676079 -46 52 C-47.96995556 48.06008887 -47.45307739 43.29492536 -47 39 C-44.88151477 35.29265085 -42.86831655 33.63659546 -39 32 C-34.32093096 31.26836375 -30.82897959 31.59304639 -26.5625 33.6875 C-23.87568764 36.11218433 -23.18780261 37.66862802 -22 41 C-21.10168457 40.98952637 -20.20336914 40.97905273 -19.27783203 40.96826172 C-15.94935553 40.9342053 -12.62106378 40.90911382 -9.29248047 40.89013672 C-7.85104453 40.88007037 -6.40962905 40.8664162 -4.96826172 40.84912109 C-2.89806066 40.82489988 -0.82812924 40.81352359 1.2421875 40.8046875 C3.11173096 40.78897705 3.11173096 40.78897705 5.01904297 40.77294922 C8 41 8 41 10 43 C10.22705078 45.24658203 10.22705078 45.24658203 10.1953125 48.0078125 C10.18886719 48.99394531 10.18242188 49.98007812 10.17578125 50.99609375 C10.15902344 52.02863281 10.14226562 53.06117187 10.125 54.125 C10.11597656 55.16527344 10.10695312 56.20554688 10.09765625 57.27734375 C10.07403747 59.85179092 10.04110149 62.42578212 10 65 C10.93199219 64.60167969 11.86398438 64.20335938 12.82421875 63.79296875 C22.59337974 59.70121407 32.26571526 56 43 56 C43 43.13 43 30.26 43 17 C31.45 17 19.9 17 8 17 C7.34 18.65 6.68 20.3 6 22 C2.75989933 24.92654254 0.05405316 25.90056102 -4.3125 26.3125 C-9.61064075 25.86350502 -12.45790324 23.79911289 -15.875 19.8125 C-17.49070217 15.77324458 -17.91986746 12.27811376 -17 8 C-12.95214187 1.15173688 -7.9705103 -1.08483316 0 0 Z M-9 10 C-8.67673447 13.59679066 -8.67673447 13.59679066 -8 17 C-3.90457219 18.14203952 -3.90457219 18.14203952 -0.0625 16.875 C1.2373322 14.98566322 1.2373322 14.98566322 0.8125 12.4375 C0.15372967 9.85558728 0.15372967 9.85558728 -2 8 C-5.9674509 7.56530472 -5.9674509 7.56530472 -9 10 Z M126.125 9.1875 C124.74822403 11.00924255 124.74822403 11.00924255 125.1875 13.5625 C125.84627033 16.14441272 125.84627033 16.14441272 128 18 C131.09926819 17.67801034 131.09926819 17.67801034 134 17 C134.67673447 13.59679066 134.67673447 13.59679066 135 10 C133.17796419 7.77033253 133.17796419 7.77033253 130.5625 7.6875 C127.99629985 7.81457344 127.99629985 7.81457344 126.125 9.1875 Z M-38.9375 42.25 C-40.24503602 44.87867962 -40.24503602 44.87867962 -39.5 47.25 C-38.0745356 49.17702205 -38.0745356 49.17702205 -35.625 50 C-32.83253944 50.28097119 -32.83253944 50.28097119 -30.6875 48.0625 C-30.130625 47.381875 -29.57375 46.70125 -29 46 C-30.08784968 42.75016865 -30.08784968 42.75016865 -32 40 C-35.55700336 39.43836789 -36.53097558 39.45532648 -38.9375 42.25 Z M156.0625 41.6875 C154.73220514 43.99699948 154.73220514 43.99699948 155.5 46.6875 C156.8080892 49.20025401 156.8080892 49.20025401 159.4375 49.9375 C162.24528606 50.25162602 162.24528606 50.25162602 165 48 C166.00478037 46.1477633 166.00478037 46.1477633 166 44 C164.99033641 41.65373496 164.99033641 41.65373496 163 40 C159.74469512 39.34893902 158.58219946 39.49292305 156.0625 41.6875 Z M-24.57714844 100.37451172 C-27.90585118 104.17727473 -31.33231988 108.18966933 -33 113 C-30.5174276 125.57727076 -15.76339792 137.51199586 -5.8125 144.625 C10.0678998 155.16228756 26.1190584 161.61657312 45 165 C45.73992187 165.13277344 46.47984375 165.26554687 47.2421875 165.40234375 C77.38437207 169.68323767 109.63525131 161.12105757 134 143 C149.09057865 130.90713014 149.09057865 130.90713014 159 115 C155.80073807 100.95672817 139.62655128 88.11147309 127.91308594 80.51879883 C78.69952962 49.96197018 14.76950335 57.48186597 -24.57714844 100.37451172 Z M-38.3125 179.9375 C-38.869375 180.618125 -39.42625 181.29875 -40 182 C-38.91215032 185.24983135 -38.91215032 185.24983135 -37 188 C-34.58462162 188.41717279 -34.58462162 188.41717279 -32 188 C-29.9214392 186.42304368 -29.9214392 186.42304368 -29 184 C-29.33609251 181.24308557 -29.33609251 181.24308557 -31 179 C-34.4351607 177.46321758 -35.39517077 177.49325119 -38.3125 179.9375 Z M156.6875 179.9375 C156.130625 180.618125 155.57375 181.29875 155 182 C156.08784968 185.24983135 156.08784968 185.24983135 158 188 C160.41537838 188.41717279 160.41537838 188.41717279 163 188 C165.0785608 186.42304368 165.0785608 186.42304368 166 184 C165.66390749 181.24308557 165.66390749 181.24308557 164 179 C160.5648393 177.46321758 159.60482923 177.49325119 156.6875 179.9375 Z M-9 212 C-9.5 215 -9.5 215 -9 218 C-6.24104365 220.29637779 -6.24104365 220.29637779 -3.4375 219.75 C-0.84999433 219.16191948 -0.84999433 219.16191948 1 217 C0.67028521 213.70285207 0.3773161 212.3773161 -2 210 C-6.04622502 209.63019987 -6.04622502 209.63019987 -9 212 Z M126.1875 211.1875 C124.73896665 212.99801207 124.73896665 212.99801207 125.1875 215.5625 C125.84627033 218.14441272 125.84627033 218.14441272 128 220 C131.09926819 219.67801034 131.09926819 219.67801034 134 219 C134.33 216.69 134.66 214.38 135 212 C131.75793839 209.83862559 129.66801689 208.90716135 126.1875 211.1875 Z " fill="#0B8AD3" transform="translate(65,14)"/>
<path d="M0 0 C2.71382083 4.07073125 2.33127641 7.22328112 2.3125 12 C2.32861328 12.81984375 2.34472656 13.6396875 2.36132812 14.484375 C2.36197266 15.27328125 2.36261719 16.0621875 2.36328125 16.875 C2.36626221 17.59429687 2.36924316 18.31359375 2.37231445 19.0546875 C1.8927234 21.56051145 0.9567883 22.41261746 -1 24 C-2.58224413 24.79520703 -4.18939506 25.54191735 -5.8125 26.25 C-11.60616466 29.05802433 -15.31810066 32.52562663 -18.12890625 38.33203125 C-20.3657398 45.18296092 -19.95327522 52.85849432 -17.0625 59.4375 C-13.68162606 65.38551317 -8.40932839 68.8635572 -2 71 C5.68952687 71.64167051 12.69045236 71.88015355 19 67 C23.50937911 62.94260994 25.96983431 58.43770946 28.140625 52.8203125 C29 51 29 51 31 50 C33.97352288 49.76419484 36.95563698 49.81482052 39.9375 49.8125 C41.1740332 49.79413086 41.1740332 49.79413086 42.43554688 49.77539062 C43.22896484 49.77345703 44.02238281 49.77152344 44.83984375 49.76953125 C45.56550537 49.76542236 46.29116699 49.76131348 47.03881836 49.75708008 C49 50 49 50 52 52 C51.3929888 64.14022393 46.55539074 74.36982437 38 83 C27.49882673 91.82437302 15.4141688 96.59561395 1.6328125 96.25 C-12.21917713 94.93467754 -23.59803351 89.19072206 -33 79 C-41.56306173 67.8293894 -44.98749275 56.00776747 -44 42 C-42.01121495 29.08975125 -35.96923188 17.15345752 -25.53125 9.09375 C-18.40303645 4.25967415 -8.93781683 -1.12106637 0 0 Z M-25.734375 20.47265625 C-33.30559577 28.91848356 -36.56117586 38.80958632 -36.3125 50 C-35.34839585 59.2553998 -32.27677476 67.14848442 -26 74 C-25.47535156 74.61488281 -24.95070313 75.22976562 -24.41015625 75.86328125 C-17.09383432 83.90262794 -7.03919187 87.83952907 3.6875 88.375 C15.35973118 88.07019519 25.4539521 83.24914292 33.80859375 75.2734375 C38.35428102 70.30832273 41.5267167 64.57872047 43 58 C40.36 58 37.72 58 35 58 C34.67128906 58.71285156 34.34257812 59.42570312 34.00390625 60.16015625 C29.84865885 68.52695521 24.87906385 73.92580032 16.375 77.9375 C7.76885087 80.69146772 -2.64538835 80.18923411 -10.7890625 76.3203125 C-18.45333272 71.74341615 -23.75528906 65.71974364 -26.609375 57.17578125 C-28.47324169 46.7940438 -27.46947591 36.91478188 -21.71484375 28.01171875 C-18.01729119 23.20181055 -13.39562866 20.61148427 -8 18 C-7.34 17.67 -6.68 17.34 -6 17 C-6 14.36 -6 11.72 -6 9 C-13.34064477 9 -20.72407273 15.73807816 -25.734375 20.47265625 Z " fill="#0A82D0" transform="translate(124,80)"/>
<path d="M0 0 C10.43796971 1.452533 21.49176977 7.83619334 28.4765625 15.5703125 C33.97929181 22.97521984 40.08346042 32.4654721 39.0625 42.0625 C38.375 44.125 38.375 44.125 37.375 45.125 C34.09319211 45.45781492 30.79652094 45.44984546 27.5 45.5 C26.57574219 45.53738281 25.65148437 45.57476562 24.69921875 45.61328125 C22.1638472 45.64639931 19.86286745 45.61875756 17.375 45.125 C15.328125 42.7890625 15.328125 42.7890625 14.375 40.125 C10.25957873 31.14589904 4.19998373 26.78820079 -4.625 23.125 C-6.92509773 20.82490227 -5.81037365 15.27709334 -5.8125 12.1875 C-5.82474609 11.25486328 -5.83699219 10.32222656 -5.84960938 9.36132812 C-5.85154297 8.46994141 -5.85347656 7.57855469 -5.85546875 6.66015625 C-5.86163208 5.42857788 -5.86163208 5.42857788 -5.86791992 4.17211914 C-5.39694403 0.20314136 -3.74758488 0.12922706 0 0 Z M2.375 9.125 C1.64663391 13.20400874 1.64663391 13.20400874 2.375 17.125 C4.67636171 18.96790503 7.0827879 20.2007308 9.6953125 21.5625 C15.74351088 25.08914628 19.67591757 30.7742178 22.375 37.125 C25.015 37.125 27.655 37.125 30.375 37.125 C26.35191566 25.57638142 21.0746613 18.32817787 10.375 12.125 C7.72118956 10.91794429 5.16272204 10.0026162 2.375 9.125 Z " fill="#0D99D9" transform="translate(136.625,79.875)"/>
<path d="M0 0 C3.63032363 3.27614572 7.24270394 6.59880197 7.8359375 11.6328125 C8.08666597 18.55677559 7.2134437 23.05434976 2.5625 28.3125 C-1.62550955 32.02187989 -6.98883711 32.58617713 -12.4375 32.3125 C-17.78431387 30.76786488 -21.44058354 28.03840673 -24.4375 23.3125 C-26.58424968 19.2336756 -26.90321236 15.8920049 -26.4375 11.3125 C-24.61072864 6.03954914 -22.21229176 2.37326395 -17.4375 -0.6875 C-11.62364524 -2.62545159 -5.51641224 -2.70805692 0 0 Z M-17.4375 10.3125 C-18.57759771 14.23158586 -18.84638632 16.34408504 -17.25 20.125 C-15.29730888 22.48169618 -14.37774566 23.49576509 -11.4375 24.3125 C-7.27015954 24.23808321 -5.17105841 23.95201246 -2 21.1875 C-0.00235662 17.51183618 0.22600721 15.44098931 -0.4375 11.3125 C-2.35416667 8.22916667 -2.35416667 8.22916667 -5.4375 6.3125 C-10.79431029 5.45158406 -13.84105554 6.18716665 -17.4375 10.3125 Z " fill="#0A87D2" transform="translate(137.4375,112.6875)"/>
</svg>
