<?xml version="1.0" encoding="UTF-8"?>
<svg version="1.1" xmlns="http://www.w3.org/2000/svg" width="256" height="256">
<path d="M0 0 C7.22002248 4.30284168 11.62310126 10.13285031 14.4375 18 C14.74361817 20.73024311 14.90400841 23.15875762 14.875 25.875 C14.89433594 27.19242188 14.91367188 28.50984375 14.93359375 29.8671875 C14.4375 34 14.4375 34 10.4375 43 C33.7025 66.265 33.7025 66.265 57.4375 90 C60.4075 88.68 63.3775 87.36 66.4375 86 C74.73432014 84.83313393 82.97547943 85.00558875 90.3203125 89.3828125 C96.28423368 93.93827997 99.89540658 98.92215972 102.4375 106 C103.58377924 115.37083278 103.35041227 124.25894094 97.4375 132 C92.17608276 137.7897604 86.53043772 141.57830339 78.5703125 142.3984375 C77.23440467 142.41028299 75.89818649 142.40204862 74.5625 142.375 C73.51739258 142.36629883 73.51739258 142.36629883 72.45117188 142.35742188 C66.89880412 142.21796706 62.510775 141.17426072 57.4375 139 C49.5339171 146.67309166 49.5339171 146.67309166 42.125 154.8125 C38.01717977 159.65059939 33.43704647 164.02478593 28.93115234 168.48681641 C25.03355226 172.36100162 21.26091391 176.27648177 17.73828125 180.5 C16.4375 182 16.4375 182 13.9375 184.1875 C12.13586264 185.93883246 12.13586264 185.93883246 12.625 188.5625 C12.893125 189.366875 13.16125 190.17125 13.4375 191 C15.90051078 198.38903234 15.70526948 208.45674624 12.4375 215.5625 C8.13146246 222.78788503 2.30486812 227.17433794 -5.5625 230 C-14.93333278 231.14627924 -23.82144094 230.91291227 -31.5625 225 C-37.14948882 219.92285047 -41.33317539 214.44055832 -41.734375 206.671875 C-41.74836074 203.44116856 -41.69355299 200.22778661 -41.5625 197 C-42.40506348 196.7417041 -43.24762695 196.4834082 -44.11572266 196.21728516 C-47.80191232 194.91544767 -51.23388206 193.29066766 -54.7109375 191.5234375 C-55.36832916 191.19332672 -56.02572083 190.86321594 -56.70303345 190.52310181 C-58.78311317 189.47750603 -60.86032644 188.4263553 -62.9375 187.375 C-64.35528238 186.6610881 -65.77324938 185.9475427 -67.19140625 185.234375 C-70.65058677 183.49381428 -74.10720937 181.74826918 -77.5625 180 C-78.3678418 180.60835693 -78.3678418 180.60835693 -79.18945312 181.22900391 C-79.90037109 181.76444824 -80.61128906 182.29989258 -81.34375 182.8515625 C-82.3965918 183.64554443 -82.3965918 183.64554443 -83.47070312 184.45556641 C-91.73230983 190.55534745 -99.52632612 191.13069556 -109.5625 190 C-116.93732613 187.92433558 -122.39944015 183.38262227 -126.5625 177 C-130.66507 168.92035037 -131.15986396 159.7090971 -128.71875 150.984375 C-125.44861749 143.78124527 -120.28064518 138.92394997 -113.31640625 135.3203125 C-109.07661923 133.82910749 -105.80520987 133.65026696 -101.375 133.8125 C-100.67697266 133.82603516 -99.97894531 133.83957031 -99.25976562 133.85351562 C-97.36042858 133.89146622 -95.46142119 133.9450473 -93.5625 134 C-92.2425 134 -90.9225 134 -89.5625 134 C-86.83457931 131.14515272 -84.8689975 127.69792083 -82.75 124.375 C-82.13962891 123.47136719 -81.52925781 122.56773437 -80.90039062 121.63671875 C-80.32869141 120.75371094 -79.75699219 119.87070313 -79.16796875 118.9609375 C-78.38135864 117.75123291 -78.38135864 117.75123291 -77.57885742 116.51708984 C-75.92220608 112.41426128 -77.07110685 109.32000754 -78.56787109 105.29931641 C-83.61284445 93.28125769 -83.61284445 93.28125769 -92.87744141 85.06494141 C-97.80169243 84.40116467 -102.57557905 85.17089583 -107.46435547 85.84716797 C-112.27599371 86.197655 -115.93584547 83.91540772 -119.5625 81 C-125.34813241 75.71217535 -129.05902194 70.11593316 -130.03125 62.16796875 C-130.10638366 52.59781848 -129.36353194 45.28314394 -122.6953125 37.9453125 C-115.78706359 31.46714912 -109.06461038 29.43257647 -99.63110352 29.51953125 C-92.11116839 29.78335817 -86.76590899 31.86610441 -81.40234375 37.11328125 C-79.69679627 39.02227376 -78.12370896 40.97376241 -76.5625 43 C-68.26691214 40.63485564 -60.22894571 37.73109974 -52.15820312 34.69726562 C-51.22041016 34.34986328 -50.28261719 34.00246094 -49.31640625 33.64453125 C-48.47408447 33.32846924 -47.6317627 33.01240723 -46.76391602 32.68676758 C-44.5625 32 -44.5625 32 -41.5625 32 C-41.62050781 31.10539062 -41.67851563 30.21078125 -41.73828125 29.2890625 C-42.09123491 19.82990434 -41.17300868 13.09277946 -34.6953125 5.9375 C-25.39035118 -2.75195804 -11.79955746 -5.35685431 0 0 Z M-46.84375 42.58984375 C-47.57243286 42.85382462 -48.30111572 43.11780548 -49.05187988 43.38978577 C-50.59560031 43.94969331 -52.13900792 44.51046395 -53.68212891 45.07202148 C-56.05125018 45.93340968 -58.42204087 46.79008335 -60.79296875 47.64648438 C-62.28916701 48.18981645 -63.78526421 48.73342692 -65.28125 49.27734375 C-66.35155457 49.66332985 -66.35155457 49.66332985 -67.44348145 50.05711365 C-70.75791295 51.08893177 -70.75791295 51.08893177 -73.5625 53 C-73.79777773 55.34987262 -73.97636417 57.70556039 -74.125 60.0625 C-74.20878906 61.35285156 -74.29257813 62.64320312 -74.37890625 63.97265625 C-74.43949219 64.97167969 -74.50007813 65.97070312 -74.5625 67 C-71.29658178 68.67643038 -68.02400893 70.33943344 -64.75 72 C-63.82123047 72.47695312 -62.89246094 72.95390625 -61.93554688 73.4453125 C-61.04287109 73.89648438 -60.15019531 74.34765625 -59.23046875 74.8125 C-58.40828857 75.23144531 -57.5861084 75.65039062 -56.73901367 76.08203125 C-54.49549523 77.1943057 -54.49549523 77.1943057 -51.5625 77 C-50.24877169 75.60823302 -50.24877169 75.60823302 -49.14453125 73.703125 C-48.47514526 72.64339478 -48.47514526 72.64339478 -47.79223633 71.56225586 C-47.32454834 70.79921143 -46.85686035 70.03616699 -46.375 69.25 C-45.39656294 67.69355153 -44.41739061 66.13756503 -43.4375 64.58203125 C-42.95410156 63.80811035 -42.47070312 63.03418945 -41.97265625 62.23681641 C-39.99448791 59.09900853 -37.94107275 56.01816205 -35.875 52.9375 C-34.91013672 51.49697266 -34.91013672 51.49697266 -33.92578125 50.02734375 C-33.25095703 49.02380859 -33.25095703 49.02380859 -32.5625 48 C-33.53778737 46.66382648 -34.51783319 45.3311249 -35.5 44 C-36.04527344 43.2575 -36.59054688 42.515 -37.15234375 41.75 C-37.61769531 41.1725 -38.08304688 40.595 -38.5625 40 C-41.27055589 40 -44.28642835 41.66033681 -46.84375 42.58984375 Z M-0.625 51 C-7.63818874 54.61517744 -18.06410684 54.04998723 -25.5625 52 C-26.1915625 53.01578125 -26.820625 54.0315625 -27.46875 55.078125 C-28.33305997 56.46891992 -29.19766426 57.85953196 -30.0625 59.25 C-30.51085205 59.97276123 -30.9592041 60.69552246 -31.42114258 61.44018555 C-34.86814505 66.96722314 -38.48894061 72.33333872 -42.26171875 77.64453125 C-42.90560547 78.81048828 -42.90560547 78.81048828 -43.5625 80 C-42.84767297 83.19751095 -42.84767297 83.19751095 -40 84.625 C-36.64829904 85.36977625 -36.64829904 85.36977625 -34.6328125 83.66796875 C-33.3135049 82.44876426 -32.02872168 81.19090201 -30.78515625 79.89453125 C-24.47867717 74.51906138 -17.43424035 74.31834126 -9.51953125 74.58984375 C-2.27231497 75.34103596 2.93772939 78.05331902 7.875 83.375 C12.06793703 88.84713816 13.56034055 94.2402391 14.4375 101 C25.40573696 103.0361826 36.35377746 104.73201021 47.4375 106 C48.7575 103.03 50.0775 100.06 51.4375 97 C45.19927479 90.73865336 38.95838883 84.47997477 32.71404362 78.22473145 C29.81495265 75.32041121 26.91680356 72.41516369 24.02075195 69.5078125 C21.22837913 66.70461234 18.43360453 63.90382802 15.63711357 61.10473633 C14.56807117 60.0338394 13.49991247 58.96205956 12.43263435 57.8894043 C10.94314439 56.39270595 9.45060598 54.89911495 7.95727539 53.40625 C7.10678116 52.55353516 6.25628693 51.70082031 5.38002014 50.82226562 C2.46702904 48.08960745 2.97787691 48.64710079 -0.625 51 Z M-80.75 76.75 C-81.348125 77.4925 -81.94625 78.235 -82.5625 79 C-82.16621566 82.37221444 -80.58458804 84.90057122 -78.83984375 87.765625 C-78.30166016 88.65507813 -77.76347656 89.54453125 -77.20898438 90.4609375 C-76.64501953 91.38132812 -76.08105469 92.30171875 -75.5 93.25 C-74.93216797 94.18585938 -74.36433594 95.12171875 -73.77929688 96.0859375 C-72.37829213 98.39347472 -70.97256074 100.69798943 -69.5625 103 C-66.16619382 99.72810064 -63.70965652 96.28965265 -61.3125 92.25 C-60.94898437 91.64800781 -60.58546875 91.04601562 -60.2109375 90.42578125 C-59.32296703 88.95361969 -58.44200842 87.4772326 -57.5625 86 C-59.63516832 83.75564079 -61.55461933 82.31595919 -64.28515625 80.95703125 C-64.98833984 80.60576172 -65.69152344 80.25449219 -66.41601562 79.89257812 C-67.14498047 79.53615234 -67.87394531 79.17972656 -68.625 78.8125 C-69.35783203 78.44447266 -70.09066406 78.07644531 -70.84570312 77.69726562 C-75.93618132 74.69590675 -75.93618132 74.69590675 -80.75 76.75 Z M-49.5625 89 C-50.23796875 90.08539063 -50.9134375 91.17078125 -51.609375 92.2890625 C-52.51036796 93.73440537 -53.41141236 95.17971616 -54.3125 96.625 C-54.97765625 97.69427734 -54.97765625 97.69427734 -55.65625 98.78515625 C-56.31367187 99.83896484 -56.31367187 99.83896484 -56.984375 100.9140625 C-57.63116211 101.95675293 -57.63116211 101.95675293 -58.29101562 103.02050781 C-59.45086049 104.82619562 -60.68695032 106.54198176 -61.953125 108.2734375 C-63.77602295 110.73836799 -63.77602295 110.73836799 -63.35986328 112.81982422 C-62.33320546 115.62694434 -60.93706856 118.0357167 -59.4140625 120.609375 C-58.41330688 122.30864136 -58.41330688 122.30864136 -57.39233398 124.04223633 C-56.65750923 125.27822885 -55.92256143 126.51414822 -55.1875 127.75 C-54.43456619 129.02408988 -53.68205058 130.29842697 -52.92993164 131.57299805 C-50.90880139 134.99474654 -48.88107407 138.41253836 -46.85150146 141.82928467 C-45.53218871 144.05104509 -44.2143611 146.27368011 -42.89697266 148.49658203 C-37.46063034 157.66943974 -32.01575843 166.83718938 -26.5625 176 C-22.1075 175.01 -22.1075 175.01 -17.5625 174 C-17.5625 159.48 -17.5625 144.96 -17.5625 130 C-21.1925 128.68 -24.8225 127.36 -28.5625 126 C-34.64175596 121.88179435 -38.58407365 117.17402348 -40.5625 110 C-41.11373424 104.34005226 -40.85841766 98.66846716 -40.5625 93 C-45.0175 91.02 -45.0175 91.02 -49.5625 89 Z M13.4375 110 C13.15777344 110.65226562 12.87804687 111.30453125 12.58984375 111.9765625 C9.70294049 118.27019726 7.20087492 122.09577828 1.4375 126 C-2.1925 127.32 -5.8225 128.64 -9.5625 130 C-9.5625 144.52 -9.5625 159.04 -9.5625 174 C-5.9325 175.32 -2.3025 176.64 1.4375 178 C2.7575 178.66 4.0775 179.32 5.4375 180 C8.93759675 176.59565058 12.3436892 173.16548955 15.5 169.4375 C18.95141965 165.42258327 22.67689903 161.72133602 26.4375 158 C30.68094087 153.80068121 34.78438452 149.58142398 38.640625 145.01953125 C42.68486753 140.47415431 47.10180154 136.26513555 51.4375 132 C50.45357654 129.5216656 49.46402801 127.05929791 48.375 124.625 C47.24105534 121.44995494 46.88618201 118.33306633 46.4375 115 C44.58802614 113.15052614 41.59504905 113.36733397 39.1015625 113.02734375 C37.16410156 112.76147461 37.16410156 112.76147461 35.1875 112.49023438 C34.51074219 112.39959717 33.83398438 112.30895996 33.13671875 112.21557617 C31.07744493 111.93950356 29.01916149 111.65682931 26.9609375 111.37304688 C20.22231273 110.37962897 20.22231273 110.37962897 13.4375 110 Z M-70.5625 122 C-71.98295694 123.71088609 -71.98295694 123.71088609 -73.3828125 125.9375 C-73.91777344 126.74960938 -74.45273438 127.56171875 -75.00390625 128.3984375 C-75.55949219 129.25695312 -76.11507812 130.11546875 -76.6875 131 C-77.25082031 131.85851562 -77.81414062 132.71703125 -78.39453125 133.6015625 C-79.79010249 135.73039998 -81.17905555 137.86326974 -82.5625 140 C-82.06878906 140.75925781 -81.57507813 141.51851562 -81.06640625 142.30078125 C-80.42574219 143.29464844 -79.78507812 144.28851563 -79.125 145.3125 C-78.48691406 146.29863281 -77.84882812 147.28476563 -77.19140625 148.30078125 C-75.16048589 151.66616727 -74.43580321 154.14932673 -74.46484375 158.01171875 C-74.46806641 158.76904297 -74.47128906 159.52636719 -74.47460938 160.30664062 C-74.48298828 161.09232422 -74.49136719 161.87800781 -74.5 162.6875 C-74.50451172 163.48478516 -74.50902344 164.28207031 -74.51367188 165.10351562 C-74.5254415 167.06904257 -74.54337652 169.03453085 -74.5625 171 C-69.80387806 173.47810063 -65.03517465 175.93509381 -60.25585938 178.37304688 C-58.63116202 179.20552569 -57.00938151 180.04372266 -55.390625 180.88769531 C-53.06470944 182.09910967 -50.72911656 183.28964613 -48.390625 184.4765625 C-47.66756165 184.85873932 -46.94449829 185.24091614 -46.19952393 185.63467407 C-42.35774033 187.65268661 -42.35774033 187.65268661 -38.18261719 187.38427734 C-36.03435694 185.54873852 -34.87009414 183.48442887 -33.5625 181 C-40.88888408 168.05122471 -48.34907653 155.19720325 -56.06591797 142.47705078 C-57.618925 139.9066088 -59.15601994 137.32709394 -60.69140625 134.74609375 C-61.68982898 133.08056417 -62.68851663 131.41519336 -63.6875 129.75 C-64.14906494 128.96858643 -64.61062988 128.18717285 -65.08618164 127.38208008 C-66.1900073 125.55373244 -67.36894729 123.77107822 -68.5625 122 C-69.2225 122 -69.8825 122 -70.5625 122 Z " fill="#F59388" transform="translate(141.5625,14)"/>
<path d="M0 0 C2.31 1.98 4.62 3.96 7 6 C3.96997286 9.62125195 0.93217419 13.12881539 -2.4375 16.4375 C-4.74856084 18.7086289 -6.90984506 21.0249572 -9 23.5 C-13.23315094 28.42584836 -17.893609 32.91899695 -22.50512695 37.4855957 C-26.40313065 41.36019675 -30.1762139 45.27603553 -33.69921875 49.5 C-35 51 -35 51 -37.5 53.1875 C-39.30163736 54.93883246 -39.30163736 54.93883246 -38.8125 57.5625 C-38.4103125 58.7690625 -38.4103125 58.7690625 -38 60 C-35.53698922 67.38903234 -35.73223052 77.45674624 -39 84.5625 C-43.30603754 91.78788503 -49.13263188 96.17433794 -57 99 C-66.37083278 100.14627924 -75.25894094 99.91291227 -83 94 C-88.58698882 88.92285047 -92.77067539 83.44055832 -93.171875 75.671875 C-93.18586074 72.44116856 -93.13105299 69.22778661 -93 66 C-93.84256348 65.7417041 -94.68512695 65.4834082 -95.55322266 65.21728516 C-99.23941232 63.91544767 -102.67138206 62.29066766 -106.1484375 60.5234375 C-106.80582916 60.19332672 -107.46322083 59.86321594 -108.14053345 59.52310181 C-110.22061317 58.47750603 -112.29782644 57.4263553 -114.375 56.375 C-115.79278238 55.6610881 -117.21074938 54.9475427 -118.62890625 54.234375 C-122.08808677 52.49381428 -125.54470937 50.74826918 -129 49 C-129.53689453 49.40557129 -130.07378906 49.81114258 -130.62695312 50.22900391 C-131.33787109 50.76444824 -132.04878906 51.29989258 -132.78125 51.8515625 C-133.48314453 52.38088379 -134.18503906 52.91020508 -134.90820312 53.45556641 C-143.16980983 59.55534745 -150.96382612 60.13069556 -161 59 C-168.37482613 56.92433558 -173.83694015 52.38262227 -178 46 C-182.10257 37.92035037 -182.59736396 28.7090971 -180.15625 19.984375 C-176.88890744 12.78739072 -171.7242536 7.89331074 -164.734375 4.33984375 C-160.76707876 2.91643098 -157.29171902 2.46135421 -153.125 2.5 C-152.0733667 2.50640503 -152.0733667 2.50640503 -151.00048828 2.51293945 C-144.83526788 2.71483223 -140.81258176 4.28212568 -136 8 C-134.9275 8.721875 -133.855 9.44375 -132.75 10.1875 C-127.13678652 15.92828651 -124.76948791 21.41938799 -124.66162109 29.41479492 C-124.69911399 32.61690018 -124.82148066 35.80252018 -125 39 C-119.51267357 41.90914563 -114.01779923 44.80351234 -108.51464844 47.68261719 C-106.93308657 48.51117135 -105.35281303 49.34219408 -103.77441406 50.17675781 C-101.85456762 51.19023898 -99.92860696 52.19081807 -98 53.1875 C-96.906875 53.75855469 -95.81375 54.32960937 -94.6875 54.91796875 C-91.96917095 56.3495352 -91.96917095 56.3495352 -89 55 C-88.46375 54.278125 -87.9275 53.55625 -87.375 52.8125 C-83.57573422 48.31336947 -78.60163193 44.86721064 -73 43 C-62.73719993 42.17615137 -55.15096861 42.8374152 -46 48 C-45.57291748 47.54262451 -45.14583496 47.08524902 -44.70581055 46.61401367 C-37.02291838 38.39493792 -29.30797641 30.24423189 -21.3046875 22.3359375 C-18.72567859 19.72195898 -16.34839577 16.98515704 -13.96875 14.19140625 C-9.53345567 9.25450125 -4.72615963 4.65631491 0 0 Z " fill="#90CAD6" transform="translate(193,145)"/>
<path d="M0 0 C2.31 1.32 4.62 2.64 7 4 C6.3941618 6.90618627 5.51307773 9.07152794 3.92578125 11.57421875 C3.29905518 12.56977783 3.29905518 12.56977783 2.65966797 13.58544922 C2.21510254 14.27912598 1.77053711 14.97280273 1.3125 15.6875 C0.86277832 16.39922363 0.41305664 17.11094727 -0.05029297 17.84423828 C-2.95567754 22.4250439 -5.93144491 26.95162559 -9.0390625 31.3984375 C-10.17149859 32.97454318 -10.17149859 32.97454318 -10 35 C-7.46236232 36.65573965 -7.46236232 36.65573965 -4 37 C-1.80225981 35.49932084 -0.06321206 33.81324229 1.77734375 31.89453125 C8.08478957 26.51823736 15.130851 26.31602683 23.046875 26.59375 C30.67822743 27.37799966 35.73935707 30.33175215 40.9375 35.875 C45.62684244 41.76985736 47.1542783 46.36776186 47 54 C47.7206665 54.08564209 48.44133301 54.17128418 49.18383789 54.25952148 C52.47682642 54.65133606 55.76966379 55.04440739 59.0625 55.4375 C60.19623047 55.57220703 61.32996094 55.70691406 62.49804688 55.84570312 C68.0086998 56.50441091 73.5109709 57.17943397 79 58 C80.24303616 61.59099336 79.68116015 64.31668957 79 68 C74.78196726 67.4524358 70.56446601 66.90098775 66.34741211 66.34594727 C64.91298144 66.1577056 63.4784114 65.97052279 62.04370117 65.78442383 C59.98058041 65.51662518 57.91799212 65.24501287 55.85546875 64.97265625 C53.99378052 64.72914429 53.99378052 64.72914429 52.09448242 64.48071289 C49 64 49 64 46 63 C45.95875 63.66 45.9175 64.32 45.875 65 C43.76504702 72.23412451 38.51124952 76.76863983 32.44140625 80.87109375 C30 82 30 82 23 83 C23 97.52 23 112.04 23 127 C20.36 127 17.72 127 15 127 C15 112.48 15 97.96 15 83 C12.69 82.67 10.38 82.34 8 82 C0.5937385 78.57534468 -4.44938206 72.92831264 -8.15234375 65.7734375 C-9.28520313 62.06684689 -9.21404605 58.51990491 -9.125 54.6875 C-9.11597656 53.94693359 -9.10695312 53.20636719 -9.09765625 52.44335938 C-9.07424213 50.62876533 -9.03837615 48.81433929 -9 47 C-11.31 45.68 -13.62 44.36 -16 43 C-18.37473476 46.40279126 -20.72104293 49.82424401 -23.0625 53.25 C-23.73861328 54.21808594 -24.41472656 55.18617187 -25.11132812 56.18359375 C-25.74619141 57.11816406 -26.38105469 58.05273438 -27.03515625 59.015625 C-27.6269165 59.87446289 -28.21867676 60.73330078 -28.82836914 61.61816406 C-30.17107294 63.85218982 -30.17107294 63.85218982 -29.88208008 65.9609375 C-28.72247077 68.64155111 -27.33974878 71.09455704 -25.8515625 73.609375 C-25.18439209 74.74221924 -24.51722168 75.87506348 -23.82983398 77.04223633 C-23.09500923 78.27822885 -22.36006143 79.51414822 -21.625 80.75 C-20.87206619 82.02408988 -20.11955058 83.29842697 -19.36743164 84.57299805 C-17.34630139 87.99474654 -15.31857407 91.41253836 -13.28900146 94.82928467 C-11.96968871 97.05104509 -10.6518611 99.27368011 -9.33447266 101.49658203 C-3.89813034 110.66943974 1.54674157 119.83718938 7 129 C1.85714286 133.42857143 1.85714286 133.42857143 -2 134 C-2.30067383 133.46858398 -2.60134766 132.93716797 -2.91113281 132.38964844 C-9.01852464 121.61054041 -15.20033467 110.88626332 -21.61572266 100.28710938 C-24.08623221 96.20305593 -26.5276407 92.10714342 -28.90625 87.96875 C-29.36499512 87.1737207 -29.82374023 86.37869141 -30.29638672 85.55957031 C-31.16360336 84.05206031 -32.0248927 82.54112054 -32.87939453 81.02636719 C-33.8646569 79.31802595 -34.92492831 77.65329749 -36 76 C-36.66 76 -37.32 76 -38 76 C-39.17812664 77.484457 -39.17812664 77.484457 -40.27734375 79.4296875 C-40.70853516 80.14253906 -41.13972656 80.85539062 -41.58398438 81.58984375 C-42.03064453 82.34394531 -42.47730469 83.09804687 -42.9375 83.875 C-43.81561363 85.35513914 -44.69951507 86.8318636 -45.58984375 88.3046875 C-46.17560181 89.2944458 -46.17560181 89.2944458 -46.77319336 90.30419922 C-48 92 -48 92 -51 94 C-52.98 92.68 -54.96 91.36 -57 90 C-56.44755488 86.22880052 -55.4842278 83.85424915 -53.2421875 80.78515625 C-52.69949219 80.01623047 -52.15679687 79.24730469 -51.59765625 78.45507812 C-50.4483927 76.85887876 -49.29211036 75.26770977 -48.12890625 73.68164062 C-47.31873047 72.52631836 -47.31873047 72.52631836 -46.4921875 71.34765625 C-45.99058105 70.65679932 -45.48897461 69.96594238 -44.97216797 69.25415039 C-43.60954517 66.09465859 -44.08900729 64.2876541 -45 61 C-46.37171803 58.15313306 -46.37171803 58.15313306 -48.16015625 55.3828125 C-48.78857422 54.36445312 -49.41699219 53.34609375 -50.06445312 52.296875 C-50.72380859 51.25015625 -51.38316406 50.2034375 -52.0625 49.125 C-52.72572266 48.05507812 -53.38894531 46.98515625 -54.07226562 45.8828125 C-55.70622506 43.24966924 -57.34897282 40.62246248 -59 38 C-56.19350987 34.56984539 -54.79707049 34.5990235 -50 33 C-45.71 40.26 -41.42 47.52 -37 55 C-34.13148842 51.41436053 -31.66810283 48.04716413 -29.25 44.1875 C-28.63640625 43.21167969 -28.0228125 42.23585937 -27.390625 41.23046875 C-26.93171875 40.49441406 -26.4728125 39.75835937 -26 39 C-29.72471139 35.89280655 -33.9213036 33.92713702 -38.25 31.8125 C-39.36761719 31.26045898 -39.36761719 31.26045898 -40.5078125 30.69726562 C-42.33674317 29.7945242 -44.16813096 28.8967638 -46 28 C-44.125 22.25 -44.125 22.25 -43 20 C-39.47944083 20.59084404 -36.56638778 21.5155542 -33.35546875 23.06640625 C-32.09379883 23.6706543 -32.09379883 23.6706543 -30.80664062 24.28710938 C-29.94232422 24.70798828 -29.07800781 25.12886719 -28.1875 25.5625 C-27.30384766 25.98724609 -26.42019531 26.41199219 -25.50976562 26.84960938 C-23.33735663 27.89471424 -21.16760043 28.94496762 -19 30 C-18.76667969 29.32324219 -18.53335938 28.64648438 -18.29296875 27.94921875 C-16.67917666 24.26821263 -14.57215548 21.12449969 -12.3125 17.8125 C-11.86986816 17.15628662 -11.42723633 16.50007324 -10.97119141 15.82397461 C-7.37465819 10.5072189 -3.71813397 5.23247331 0 0 Z " fill="#EC6471" transform="translate(109,61)"/>
<path d="M0 0 C1.0516333 0.00640503 1.0516333 0.00640503 2.12451172 0.01293945 C8.28973212 0.21483223 12.31241824 1.78212568 17.125 5.5 C18.1975 6.221875 19.27 6.94375 20.375 7.6875 C25.98821348 13.42828651 28.35551209 18.91938799 28.46337891 26.91479492 C28.42588601 30.11690018 28.30351934 33.30252018 28.125 36.5 C39.71777953 42.65344129 51.35667249 48.68888103 63.125 54.5 C62.135 57.47 61.145 60.44 60.125 63.5 C55.5093831 62.08503846 51.26923157 60.20520721 46.9765625 58.0234375 C46.31917084 57.69332672 45.66177917 57.36321594 44.98446655 57.02310181 C42.90438683 55.97750603 40.82717356 54.9263553 38.75 53.875 C37.33221762 53.1610881 35.91425062 52.4475427 34.49609375 51.734375 C31.03691323 49.99381428 27.58029063 48.24826918 24.125 46.5 C23.58810547 46.90557129 23.05121094 47.31114258 22.49804688 47.72900391 C21.78712891 48.26444824 21.07621094 48.79989258 20.34375 49.3515625 C19.64185547 49.88088379 18.93996094 50.41020508 18.21679688 50.95556641 C9.95519017 57.05534745 2.16117388 57.63069556 -7.875 56.5 C-15.24982613 54.42433558 -20.71194015 49.88262227 -24.875 43.5 C-28.97757 35.42035037 -29.47236396 26.2090971 -27.03125 17.484375 C-23.76390744 10.28739072 -18.5992536 5.39331074 -11.609375 1.83984375 C-7.64207876 0.41643098 -4.16671902 -0.03864579 0 0 Z " fill="#4E9AB8" transform="translate(39.875,147.5)"/>
<path d="M0 0 C7.22538503 4.30603754 11.61183794 10.13263188 14.4375 18 C15.58377924 27.37083278 15.35041227 36.25894094 9.4375 44 C4.15550103 49.81240891 -1.49062141 53.54756905 -9.46484375 54.43359375 C-10.80968494 54.4574472 -12.15510766 54.45826992 -13.5 54.4375 C-14.20584229 54.42775146 -14.91168457 54.41800293 -15.63891602 54.40795898 C-25.28672521 54.0788155 -30.15759717 50.17394404 -36.640625 43.27734375 C-42.38332263 36.4724805 -42.13253064 29.50823514 -41.5625 21 C-40.80179937 12.57594492 -35.49993532 7.48067473 -29.4375 2.125 C-21.44304333 -3.78394624 -9.01120538 -4.11742769 0 0 Z " fill="#FECF86" transform="translate(229.5625,102)"/>
<path d="M0 0 C6.7614521 4.05231809 11.89597778 9.69567792 13.9921875 17.390625 C15.61419437 26.89501616 15.27424134 34.51899749 10.0703125 42.796875 C8.07006385 45.49577509 6.32313017 47.25520036 3.4375 49 C2.86 49.44085938 2.2825 49.88171875 1.6875 50.3359375 C-5.47073806 55.2436689 -13.26914819 55.0178963 -21.5625 54 C-28.93838412 51.91176268 -34.39549317 47.38867359 -38.5625 41 C-42.66507 32.92035037 -43.15986396 23.7090971 -40.71875 14.984375 C-37.45100383 7.78650168 -32.28567447 2.89050078 -25.29296875 -0.66015625 C-17.46142405 -3.47295189 -7.65200851 -3.47391797 0 0 Z " fill="#90CAD6" transform="translate(53.5625,46)"/>
<path d="M0 0 C2.31 1.32 4.62 2.64 7 4 C6.3941618 6.90618627 5.51307773 9.07152794 3.92578125 11.57421875 C3.29905518 12.56977783 3.29905518 12.56977783 2.65966797 13.58544922 C2.21510254 14.27912598 1.77053711 14.97280273 1.3125 15.6875 C0.86277832 16.39922363 0.41305664 17.11094727 -0.05029297 17.84423828 C-2.95567754 22.4250439 -5.93144491 26.95162559 -9.0390625 31.3984375 C-10.17149859 32.97454318 -10.17149859 32.97454318 -10 35 C-8.02 35.99 -6.04 36.98 -4 38 C-4.309375 38.763125 -4.61875 39.52625 -4.9375 40.3125 C-5.67893593 42.18789677 -6.36228217 44.08684652 -7 46 C-10.36327963 45.43945339 -12.99112219 44.58158962 -16 43 C-18.37473476 46.40279126 -20.72104293 49.82424401 -23.0625 53.25 C-23.73861328 54.21808594 -24.41472656 55.18617187 -25.11132812 56.18359375 C-25.74619141 57.11816406 -26.38105469 58.05273438 -27.03515625 59.015625 C-27.6269165 59.87446289 -28.21867676 60.73330078 -28.82836914 61.61816406 C-30.17107294 63.85218982 -30.17107294 63.85218982 -29.88208008 65.9609375 C-28.72247077 68.64155111 -27.33974878 71.09455704 -25.8515625 73.609375 C-25.18439209 74.74221924 -24.51722168 75.87506348 -23.82983398 77.04223633 C-23.09500923 78.27822885 -22.36006143 79.51414822 -21.625 80.75 C-20.87206619 82.02408988 -20.11955058 83.29842697 -19.36743164 84.57299805 C-17.34630139 87.99474654 -15.31857407 91.41253836 -13.28900146 94.82928467 C-11.96968871 97.05104509 -10.6518611 99.27368011 -9.33447266 101.49658203 C-3.89813034 110.66943974 1.54674157 119.83718938 7 129 C1.85714286 133.42857143 1.85714286 133.42857143 -2 134 C-2.30067383 133.46858398 -2.60134766 132.93716797 -2.91113281 132.38964844 C-9.01852464 121.61054041 -15.20033467 110.88626332 -21.61572266 100.28710938 C-24.08623221 96.20305593 -26.5276407 92.10714342 -28.90625 87.96875 C-29.36499512 87.1737207 -29.82374023 86.37869141 -30.29638672 85.55957031 C-31.16360336 84.05206031 -32.0248927 82.54112054 -32.87939453 81.02636719 C-33.8646569 79.31802595 -34.92492831 77.65329749 -36 76 C-36.66 76 -37.32 76 -38 76 C-39.17812664 77.484457 -39.17812664 77.484457 -40.27734375 79.4296875 C-40.70853516 80.14253906 -41.13972656 80.85539062 -41.58398438 81.58984375 C-42.03064453 82.34394531 -42.47730469 83.09804687 -42.9375 83.875 C-43.81561363 85.35513914 -44.69951507 86.8318636 -45.58984375 88.3046875 C-46.17560181 89.2944458 -46.17560181 89.2944458 -46.77319336 90.30419922 C-48 92 -48 92 -51 94 C-52.98 92.68 -54.96 91.36 -57 90 C-56.44755488 86.22880052 -55.4842278 83.85424915 -53.2421875 80.78515625 C-52.69949219 80.01623047 -52.15679687 79.24730469 -51.59765625 78.45507812 C-50.4483927 76.85887876 -49.29211036 75.26770977 -48.12890625 73.68164062 C-47.31873047 72.52631836 -47.31873047 72.52631836 -46.4921875 71.34765625 C-45.99058105 70.65679932 -45.48897461 69.96594238 -44.97216797 69.25415039 C-43.60954517 66.09465859 -44.08900729 64.2876541 -45 61 C-46.37171803 58.15313306 -46.37171803 58.15313306 -48.16015625 55.3828125 C-48.78857422 54.36445312 -49.41699219 53.34609375 -50.06445312 52.296875 C-50.72380859 51.25015625 -51.38316406 50.2034375 -52.0625 49.125 C-52.72572266 48.05507812 -53.38894531 46.98515625 -54.07226562 45.8828125 C-55.70622506 43.24966924 -57.34897282 40.62246248 -59 38 C-56.19350987 34.56984539 -54.79707049 34.5990235 -50 33 C-45.71 40.26 -41.42 47.52 -37 55 C-34.13148842 51.41436053 -31.66810283 48.04716413 -29.25 44.1875 C-28.63640625 43.21167969 -28.0228125 42.23585937 -27.390625 41.23046875 C-26.93171875 40.49441406 -26.4728125 39.75835937 -26 39 C-29.72471139 35.89280655 -33.9213036 33.92713702 -38.25 31.8125 C-39.36761719 31.26045898 -39.36761719 31.26045898 -40.5078125 30.69726562 C-42.33674317 29.7945242 -44.16813096 28.8967638 -46 28 C-44.125 22.25 -44.125 22.25 -43 20 C-39.47944083 20.59084404 -36.56638778 21.5155542 -33.35546875 23.06640625 C-32.09379883 23.6706543 -32.09379883 23.6706543 -30.80664062 24.28710938 C-29.94232422 24.70798828 -29.07800781 25.12886719 -28.1875 25.5625 C-27.30384766 25.98724609 -26.42019531 26.41199219 -25.50976562 26.84960938 C-23.33735663 27.89471424 -21.16760043 28.94496762 -19 30 C-18.76667969 29.32324219 -18.53335938 28.64648438 -18.29296875 27.94921875 C-16.67917666 24.26821263 -14.57215548 21.12449969 -12.3125 17.8125 C-11.86986816 17.15628662 -11.42723633 16.50007324 -10.97119141 15.82397461 C-7.37465819 10.5072189 -3.71813397 5.23247331 0 0 Z " fill="#67607B" transform="translate(109,61)"/>
<path d="M0 0 C2.31 1.98 4.62 3.96 7 6 C3.96997286 9.62125195 0.93217419 13.12881539 -2.4375 16.4375 C-4.74856084 18.7086289 -6.90984506 21.0249572 -9 23.5 C-13.23382404 28.42663161 -17.89509787 32.92044355 -22.50732422 37.48779297 C-26.38152733 41.33875668 -30.10660697 45.24858866 -33.64453125 49.4140625 C-35.65018834 51.76073909 -37.72068016 53.91605043 -40 56 C-40.66 56 -41.32 56 -42 56 C-43.2890625 54.46875 -43.2890625 54.46875 -44.625 52.5 C-45.07101563 51.8503125 -45.51703125 51.200625 -45.9765625 50.53125 C-46.31429687 50.0259375 -46.65203125 49.520625 -47 49 C-46.57589844 48.5875 -46.15179688 48.175 -45.71484375 47.75 C-42.65980884 44.74196563 -39.70841862 41.71029419 -36.9375 38.4375 C-33.48608016 34.42258304 -29.76059836 30.72133855 -26 27 C-21.77824422 22.82208954 -17.69879992 18.62513013 -13.86328125 14.0859375 C-9.4761637 9.1745732 -4.6895701 4.62026611 0 0 Z " fill="#675F7B" transform="translate(193,145)"/>
<path d="M0 0 C3.5747899 1.5180728 5.85811724 3.61574711 8.58496094 6.35791016 C9.48559265 7.25869293 10.38622437 8.15947571 11.31414795 9.08755493 C12.28766481 10.07128408 13.26107125 11.0551225 14.234375 12.0390625 C15.23713161 13.04555128 16.24033222 14.05159789 17.24395752 15.05722046 C19.87873813 17.69962147 22.50745611 20.34797428 25.13494873 22.99761963 C27.81939688 25.70256052 30.50954622 28.40181821 33.19921875 31.1015625 C38.47173618 36.39550174 43.73786057 41.69574283 49 47 C47.64062915 49.8605891 46.35479531 51.85927699 44 54 C40.4252101 52.4819272 38.14188276 50.38425289 35.41503906 47.64208984 C34.51440735 46.74130707 33.61377563 45.84052429 32.68585205 44.91244507 C31.71233519 43.92871592 30.73892875 42.9448775 29.765625 41.9609375 C28.76286839 40.95444872 27.75966778 39.94840211 26.75604248 38.94277954 C24.12126187 36.30037853 21.49254389 33.65202572 18.86505127 31.00238037 C16.18060312 28.29743948 13.49045378 25.59818179 10.80078125 22.8984375 C5.52826382 17.60449826 0.26213943 12.30425717 -5 7 C-3.64062915 4.1394109 -2.35479531 2.14072301 0 0 Z " fill="#68607C" transform="translate(150,57)"/>
<path d="M0 0 C4.60613783 0.62370748 8.39940738 2.50626307 12.48828125 4.59765625 C13.19147995 4.95137802 13.89467865 5.30509979 14.6191864 5.66954041 C16.85318349 6.79490078 19.08284992 7.92855543 21.3125 9.0625 C22.83110152 9.8293282 24.34997888 10.59561038 25.86914062 11.36132812 C29.58265171 13.23457649 33.29230273 15.11527236 37 17 C36.01 19.97 35.02 22.94 34 26 C29.42206872 24.58598912 25.17066617 22.75241571 20.88671875 20.62890625 C20.23169876 20.30591049 19.57667877 19.98291473 18.90180969 19.65013123 C17.52843902 18.97065711 16.15615268 18.28898728 14.78491211 17.60522461 C12.68112375 16.55933006 10.57031892 15.52860546 8.45898438 14.49804688 C7.12193965 13.8342514 5.78533481 13.16956899 4.44921875 12.50390625 C3.81698898 12.19755753 3.18475922 11.8912088 2.53337097 11.57557678 C-1.88568598 9.34294205 -1.88568598 9.34294205 -3 6 C-1.5625 2.8125 -1.5625 2.8125 0 0 Z " fill="#655E79" transform="translate(66,185)"/>
<path d="M0 0 C2.64 0 5.28 0 8 0 C8 14.52 8 29.04 8 44 C5.36 44 2.72 44 0 44 C0 29.48 0 14.96 0 0 Z " fill="#68607C" transform="translate(124,144)"/>
<path d="M0 0 C1.12489769 2.38213628 1.99608483 4.32400797 2.01147461 6.98120117 C0.34875504 10.29981766 -2.92380356 10.90510791 -6.24609375 12.05078125 C-6.97240494 12.31384567 -7.69871613 12.5769101 -8.44703674 12.84794617 C-9.98354175 13.40078357 -11.52287042 13.94582588 -13.06469727 14.48364258 C-15.43087612 15.31018617 -17.78688771 16.16165677 -20.14257812 17.01757812 C-21.63488413 17.55097143 -23.12770672 18.08292211 -24.62109375 18.61328125 C-25.32946884 18.86837967 -26.03784393 19.12347809 -26.76768494 19.38630676 C-28.49253623 19.98306829 -30.24487326 20.49923416 -32 21 C-34 20 -34 20 -34.6328125 18.15234375 C-34.79523438 17.42144531 -34.95765625 16.69054687 -35.125 15.9375 C-35.29257813 15.20402344 -35.46015625 14.47054687 -35.6328125 13.71484375 C-35.75398438 13.14894531 -35.87515625 12.58304688 -36 12 C-27.40185961 8.6172849 -18.7990143 5.24663183 -10.125 2.0625 C-8.48917969 1.46115234 -8.48917969 1.46115234 -6.8203125 0.84765625 C-4 0 -4 0 0 0 Z " fill="#675F7A" transform="translate(101,46)"/>
<path d="M0 0 C4.02099167 0.47784395 8.04176374 0.95751205 12.0625 1.4375 C13.7630957 1.63956055 13.7630957 1.63956055 15.49804688 1.84570312 C21.0086998 2.50441091 26.5109709 3.17943397 32 4 C33.24303616 7.59099336 32.68116015 10.31668957 32 14 C27.78196726 13.4524358 23.56446601 12.90098775 19.34741211 12.34594727 C17.91298144 12.1577056 16.4784114 11.97052279 15.04370117 11.78442383 C12.98058041 11.51662518 10.91799212 11.24501287 8.85546875 10.97265625 C7.61434326 10.81031494 6.37321777 10.64797363 5.09448242 10.48071289 C2 10 2 10 -1 9 C-0.67 6.03 -0.34 3.06 0 0 Z " fill="#68607B" transform="translate(156,115)"/>
</svg>
