<?xml version="1.0" encoding="UTF-8"?>
<svg version="1.1" xmlns="http://www.w3.org/2000/svg" width="512" height="512">
<path d="M0 0 C1.40056014 -0.0165191 2.80103737 -0.04375655 4.20117188 -0.08203125 C17.33155783 -0.43883522 17.33155783 -0.43883522 21.25195312 2.74853516 C24.39568778 6.6258079 24.48454874 8.50758561 24.47485352 13.45214844 C24.47477798 14.7333255 24.47470245 16.01450256 24.47462463 17.33450317 C24.4695176 18.73813923 24.4643016 20.14177488 24.45898438 21.54541016 C24.45711958 22.97744701 24.45569597 24.4094845 24.45469666 25.84152222 C24.45087631 29.61283119 24.44105014 33.38410173 24.42999268 37.15539551 C24.41976818 41.00284302 24.41519681 44.85029673 24.41015625 48.69775391 C24.39942745 56.24855472 24.38183455 63.79931591 24.36132812 71.35009766 C31.95132813 71.35009766 39.54132812 71.35009766 47.36132812 71.35009766 C47.69132812 69.04009766 48.02132812 66.73009766 48.36132812 64.35009766 C51.0052273 61.13454461 53.46346176 58.80525277 57.36132812 57.35009766 C60.22545208 57.14562123 62.98952333 57.04601952 65.85351562 57.04931641 C66.6770755 57.04503128 67.50063538 57.04074615 68.34915161 57.03633118 C70.08904096 57.03059641 71.82895428 57.03008133 73.56884766 57.03442383 C76.22014673 57.0375784 78.8703236 57.0141336 81.52148438 56.98876953 C83.21549339 56.98649579 84.90950539 56.98579339 86.60351562 56.98681641 C87.39120331 56.97760666 88.17889099 56.96839691 88.990448 56.95890808 C93.84995131 56.99940558 97.13420394 57.70407209 101.36132812 60.35009766 C104.79266143 63.8741697 105.35874139 65.33716399 106.36132812 70.35009766 C133.09132812 70.68009766 159.82132813 71.01009766 187.36132812 71.35009766 C187.36132812 67.06009766 187.36132812 62.77009766 187.36132812 58.35009766 C190.62744659 45.78810355 196.8827016 34.50354855 208.25976562 27.58837891 C222.35756135 20.25539448 239.26939365 18.60504532 254.67382812 22.97509766 C267.43033189 27.72556651 276.5189474 36.22145814 282.17382812 48.54541016 C285.75501566 57.00360966 285.36132812 61.16941606 285.36132812 71.35009766 C325.45632813 70.85509766 325.45632813 70.85509766 366.36132812 70.35009766 C367.02132813 68.04009766 367.68132812 65.73009766 368.36132812 63.35009766 C370.77558181 60.35077414 373.70502262 58.56886616 377.36132812 57.35009766 C380.15595634 57.21704634 382.92480559 57.13783573 385.72070312 57.11181641 C386.54330627 57.10374466 387.36590942 57.09567291 388.21343994 57.08735657 C389.95509747 57.07353045 391.69678193 57.06280171 393.43847656 57.05493164 C395.21329731 57.04342157 396.9880837 57.02298506 398.76269531 56.9934082 C401.33226965 56.95058196 403.90081548 56.93454122 406.47070312 56.92431641 C407.25636658 56.90680832 408.04203003 56.88930023 408.85150146 56.8712616 C414.47573875 56.89318352 417.74497874 58.09593165 422.36132812 61.35009766 C424.77937816 65.09417514 425.36132812 66.85497759 425.36132812 71.35009766 C432.95132812 71.35009766 440.54132813 71.35009766 448.36132812 71.35009766 C448.33514404 69.44276855 448.30895996 67.53543945 448.28198242 65.5703125 C448.20123322 59.2560522 448.14384921 52.94191444 448.10226727 46.62727928 C448.07621504 42.80005327 448.04089922 38.9733878 447.98413086 35.14648438 C447.92965157 31.45060371 447.89987469 27.75526087 447.88694191 24.05900955 C447.87773026 22.65159263 447.85974134 21.2442039 447.83267784 19.83701706 C447.60354565 7.42520267 447.60354565 7.42520267 450.7668457 3.50097656 C455.95920572 -0.80359592 461.5531042 0.09180114 468 0.05493164 C470.0898686 0.03777384 472.17813146 -0.00610453 474.26757812 -0.05029297 C475.6061082 -0.06042545 476.94465169 -0.06893982 478.28320312 -0.07568359 C480.10223145 -0.09755737 480.10223145 -0.09755737 481.95800781 -0.11987305 C486.02576609 0.44185111 488.18060902 1.80273643 491.36132812 4.35009766 C492.70132718 7.03009576 492.49956894 9.09749213 492.51522827 12.09968567 C492.52382874 13.32367569 492.5324292 14.54766571 492.54129028 15.80874634 C492.54572563 17.17254596 492.55002398 18.53634604 492.55419922 19.90014648 C492.56209938 21.33073629 492.57036828 22.76132409 492.57897949 24.19190979 C492.60520854 28.89696344 492.62050752 33.60202604 492.63476562 38.30712891 C492.64012485 39.92599684 492.64550236 41.54486471 492.65089798 43.16373253 C492.67252758 49.89694987 492.69126493 56.63016479 492.70252037 63.36340809 C492.7187639 73.01755987 492.75195016 82.67130944 492.80892122 92.32530957 C492.84760193 99.11093461 492.86715079 105.89645199 492.87244093 112.6821844 C492.87609688 116.73629669 492.88814318 120.78998008 492.92054367 124.84397316 C492.95059208 128.65835921 492.95694819 132.47205615 492.94515991 136.28653526 C492.9449389 137.68577517 492.95326681 139.08504674 492.97081375 140.48417664 C493.11191928 152.38405367 493.11191928 152.38405367 489.94985962 155.65873718 C484.49308812 159.22422118 479.05455565 158.64550804 472.72265625 158.70019531 C471.32209611 158.71671441 469.92161888 158.74395186 468.52148438 158.78222656 C455.39109842 159.13903053 455.39109842 159.13903053 451.47070312 155.95166016 C448.32696847 152.07438741 448.23810751 150.1926097 448.24780273 145.24804688 C448.24787827 143.96686981 448.2479538 142.68569275 448.24803162 141.36569214 C448.25313865 139.96205609 448.25835465 138.55842043 448.26367188 137.15478516 C448.26553667 135.7227483 448.26696028 134.29071081 448.26795959 132.8586731 C448.27177994 129.08736412 448.28160611 125.31609358 448.29266357 121.5447998 C448.30288807 117.6973523 448.30745944 113.84989858 448.3125 110.00244141 C448.3232288 102.45164059 448.3408217 94.9008794 448.36132812 87.35009766 C440.44132812 87.35009766 432.52132813 87.35009766 424.36132812 87.35009766 C423.70132812 89.00009766 423.04132813 90.65009766 422.36132812 92.35009766 C421.67002808 92.89977707 420.97872803 93.44945648 420.26647949 94.01579285 C417.16078119 97.82107919 417.82470948 101.93841407 417.87890625 106.69897461 C417.87303749 108.27769348 417.87303749 108.27769348 417.86705017 109.88830566 C417.86107132 112.17400323 417.86425206 114.4597388 417.87547302 116.74541664 C417.89270323 120.36465664 417.8852431 123.98309559 417.87121582 127.6023407 C417.84153113 136.59305001 417.85475056 145.58360762 417.86639404 154.57434082 C417.87459878 162.1676509 417.86664889 169.76061187 417.83726501 177.3538723 C417.83017163 180.9164184 417.84685089 184.47835013 417.86437988 188.04084778 C417.8586711 190.23158091 417.85185337 192.42231153 417.84375 194.61303711 C417.85506454 195.6008165 417.86637909 196.58859589 417.8780365 197.60630798 C417.81336971 204.92995217 416.35300933 209.35841645 411.04882812 214.66259766 C405.60225704 218.08253764 399.72098608 219.12324716 393.36132812 218.35009766 C386.96539367 216.70514659 381.16018702 213.95446939 375.36132812 210.85009766 C374.54172607 210.41358887 373.72212402 209.97708008 372.87768555 209.52734375 C359.74706939 202.42035193 347.60499912 194.03300618 335.75195312 184.97900391 C335.16607422 184.53314941 334.58019531 184.08729492 333.9765625 183.62792969 C332.52743203 182.48150452 331.14941457 181.24652183 329.78320312 180.00244141 C326.78479699 177.95675464 324.91745202 178.01929543 321.36132812 178.35009766 C320.49121094 180.01685547 320.49121094 180.01685547 319.60351562 181.71728516 C318.81515655 183.2202585 318.02604276 184.72283613 317.23632812 186.22509766 C316.82616455 187.00578613 316.41600098 187.78647461 315.9934082 188.59082031 C313.80442355 192.72676113 311.54885074 196.76619294 309.04882812 200.72509766 C300.78155538 214.23670686 299.99813353 228.96621967 299.36132812 244.35009766 C300.52535156 243.80869141 300.52535156 243.80869141 301.71289062 243.25634766 C310.83056912 239.3394452 319.46773046 237.29708633 329.22070312 240.20166016 C335.79924132 243.1320999 341.18974402 247.85723877 344.35302734 254.40185547 C345.72260366 258.40645683 346.27903163 262.40252185 346.86914062 266.58447266 C346.9999855 267.48671066 347.13083038 268.38894867 347.26564026 269.31852722 C350.99035799 295.38205482 354.27710736 319.3517659 346.99121094 345.08447266 C339.75180924 371.12387101 335.69232084 413.13974808 348.72940063 437.30305481 C352.12035616 443.07145311 356.02291808 448.4766539 360.27661133 453.63598633 C365.25308513 460.11490181 366.20648789 465.38655001 365.36132812 473.35009766 C363.6136306 478.7988017 359.96854651 482.13551574 355.36132812 485.35009766 C352.45240519 486.31973864 350.55506204 486.48727917 347.52612305 486.51123047 C346.54467819 486.52083801 345.56323334 486.53044556 344.55204773 486.54034424 C342.96297356 486.54671906 342.96297356 486.54671906 341.34179688 486.55322266 C340.25046951 486.55892273 339.15914215 486.5646228 338.03474426 486.57049561 C335.72393768 486.57994629 333.41311762 486.58647986 331.10229492 486.59033203 C327.57316465 486.60003077 324.0446184 486.63105138 320.515625 486.66259766 C318.27018575 486.6691285 316.02474233 486.67437865 313.77929688 486.67822266 C312.72598679 486.69056946 311.6726767 486.70291626 310.58744812 486.71563721 C304.14222654 486.69611685 299.39815155 486.20865891 294.49804688 481.59619141 C294.01980469 480.99935547 293.5415625 480.40251953 293.04882812 479.78759766 C292.55769531 479.18818359 292.0665625 478.58876953 291.56054688 477.97119141 C287.84332139 472.94627748 289.0199261 466.31415144 289.36132812 460.35009766 C289.94373496 456.95305916 290.71136519 453.63494449 291.49633789 450.27929688 C295.6306479 432.09673446 295.9581512 413.93566872 295.92675781 395.37923431 C295.92385321 393.24354291 295.92672683 391.10791808 295.93041992 388.972229 C295.94002632 374.51053048 295.89567319 360.44390066 292.36132812 346.35009766 C291.95615612 344.35196861 291.55855865 342.3522631 291.17382812 340.35009766 C290.90404809 339.01655081 290.63369998 337.68311755 290.36132812 336.35009766 C289.68070312 336.67623047 289.00007813 337.00236328 288.29882812 337.33837891 C272.47142316 344.47333939 256.89800719 344.83589292 239.81640625 344.74121094 C236.36743625 344.72512614 232.91963776 344.74113673 229.47070312 344.76025391 C212.63824325 344.77713056 197.78420864 343.7402279 182.36132812 336.35009766 C181.90231747 338.59654982 181.45392502 340.84398027 181.02124023 343.09570312 C180.596462 345.1905214 180.12880312 347.27733074 179.60888672 349.35058594 C176.47216937 363.08711041 176.77165718 377.07143605 176.79589844 391.09000397 C176.79885038 393.2413195 176.79587588 395.39257075 176.79223633 397.54388428 C176.78016136 416.69520451 177.67063575 435.07925505 182.04882812 453.79541016 C183.8263312 461.58059353 185.12331624 470.48727755 181.73632812 477.91259766 C173.72248865 486.13732764 173.72248865 486.13732764 168.14274597 486.49053955 C167.27926041 486.49736755 166.41577484 486.50419556 165.52612305 486.51123047 C164.54467819 486.52083801 163.56323334 486.53044556 162.55204773 486.54034424 C160.96297356 486.54671906 160.96297356 486.54671906 159.34179688 486.55322266 C158.25046951 486.55892273 157.15914215 486.5646228 156.03474426 486.57049561 C153.72393768 486.57994629 151.41311762 486.58647986 149.10229492 486.59033203 C145.57316465 486.60003077 142.0446184 486.63105138 138.515625 486.66259766 C136.27018575 486.6691285 134.02474233 486.67437865 131.77929688 486.67822266 C130.72598679 486.69056946 129.6726767 486.70291626 128.58744812 486.71563721 C122.14092815 486.69611292 117.43668794 486.18690754 112.49804688 481.63134766 C112.01980469 481.04353516 111.5415625 480.45572266 111.04882812 479.85009766 C110.55769531 479.26228516 110.0665625 478.67447266 109.56054688 478.06884766 C107.3892402 474.95687718 107.12442515 471.97903734 106.98632812 468.28759766 C106.93734375 467.40974609 106.88835937 466.53189453 106.83789062 465.62744141 C107.99577369 458.37771087 111.88630021 452.75723491 116.56835938 447.25244141 C136.15690669 422.82915787 131.86945804 389.82059505 128.69012451 360.25296021 C127.90360368 353.76144538 126.62745646 347.49778121 124.79882812 341.22509766 C118.88326458 320.25330387 121.25563006 299.60720329 124.11132812 278.28759766 C124.23766632 277.31312683 124.36400452 276.33865601 124.49417114 275.33465576 C124.8648303 272.51287304 125.2574012 269.69508509 125.65820312 266.87744141 C125.76883591 266.0355275 125.87946869 265.19361359 125.99345398 264.32618713 C127.29800538 255.60901552 130.39566864 249.36361933 137.31054688 243.82666016 C144.54353654 238.6189076 151.59367006 238.32292433 160.36132812 239.35009766 C164.86480111 240.68446002 169.10499429 242.3704075 173.36132812 244.35009766 C172.86225482 222.7901307 168.07975809 207.01579927 156.71679688 188.61572266 C154.72498364 185.28646711 153.04378275 181.8444265 151.36132812 178.35009766 C148.49697064 177.97515893 146.2597478 177.8283323 143.70166016 179.31396484 C141.88694555 180.72839802 140.15257054 182.20677496 138.42382812 183.72509766 C137.08776212 184.84161303 135.74782078 185.95350527 134.40429688 187.06103516 C133.72802246 187.61887695 133.05174805 188.17671875 132.35498047 188.75146484 C117.17419033 200.92435412 91.50552156 220.43141653 71.36132812 218.35009766 C65.25483109 216.8178401 60.27083659 214.26829857 56.74589539 208.88131714 C54.85546218 204.05993016 54.96526069 199.79587195 55.02075195 194.66308594 C55.02031387 193.59907059 55.01987579 192.53505524 55.01942444 191.438797 C55.0215094 187.93247944 55.04482734 184.42664388 55.06835938 180.92041016 C55.07395635 178.48518129 55.07822597 176.04994903 55.08122253 173.61471558 C55.09266321 167.21299879 55.12212404 160.81148701 55.15533447 154.40985107 C55.18605191 147.87433648 55.19973147 141.33878867 55.21484375 134.80322266 C55.2469942 121.98542699 55.29760272 109.16777324 55.36132812 96.35009766 C54.73742187 96.07166016 54.11351563 95.79322266 53.47070312 95.50634766 C50.67023575 93.97127665 49.77063457 92.16871054 48.36132812 89.35009766 C48.36132812 88.69009766 48.36132812 88.03009766 48.36132812 87.35009766 C40.44132812 87.35009766 32.52132812 87.35009766 24.36132812 87.35009766 C24.38751221 89.25742676 24.41369629 91.16475586 24.44067383 93.12988281 C24.52142303 99.44414311 24.57880704 105.75828087 24.62038898 112.07291603 C24.64644121 115.90014204 24.68175703 119.72680751 24.73852539 123.55371094 C24.79300468 127.2495916 24.82278156 130.94493444 24.83571434 134.64118576 C24.84492599 136.04860268 24.86291491 137.45599141 24.88997841 138.86317825 C25.1191106 151.27499265 25.1191106 151.27499265 21.95581055 155.19921875 C16.74640039 159.51792614 11.13227192 158.57227674 4.66772461 158.59033203 C2.56713901 158.60001326 0.46754238 158.6310245 -1.6328125 158.66259766 C-2.97460358 158.66913052 -4.31640164 158.67437988 -5.65820312 158.67822266 C-6.87612549 158.68756836 -8.09404785 158.69691406 -9.34887695 158.70654297 C-12.94970992 158.31639706 -14.7765454 157.52997491 -17.63867188 155.35009766 C-19.94728344 151.88718031 -19.8950306 150.56481874 -19.91282654 146.48025513 C-19.92280167 145.25489044 -19.93277679 144.02952576 -19.9430542 142.76702881 C-19.94395001 141.40686048 -19.94461358 140.04669198 -19.94506836 138.68652344 C-19.95268886 137.25578376 -19.96111617 135.82504818 -19.97029114 134.39431763 C-19.99225384 130.50584594 -20.00103738 126.61745289 -20.00611758 122.72892618 C-20.00975904 120.29980312 -20.01599799 117.87070073 -20.02311897 115.44158554 C-20.04761953 106.96788374 -20.06066669 98.49424322 -20.06420898 90.02050781 C-20.06784485 82.12068188 -20.09774205 74.22124434 -20.13961357 66.32153714 C-20.17429814 59.54012472 -20.1897571 52.75884112 -20.19045502 45.97734058 C-20.19124847 41.92661697 -20.20001749 37.87628889 -20.22845268 33.82565689 C-20.25460241 30.01533494 -20.25685659 26.20573728 -20.24079704 22.39536667 C-20.23898004 20.99774854 -20.24569623 19.60008907 -20.26161575 18.20256042 C-20.38873509 6.31754922 -20.38873509 6.31754922 -17.22621155 3.04244995 C-11.77103557 -0.5254488 -6.3314866 0.05468371 0 0 Z M101.76611328 91.14892578 C100.97253418 92.5353125 100.17895508 93.92169922 99.36132812 95.35009766 C96.39132813 96.67009766 93.42132813 97.99009766 90.36132812 99.35009766 C90.36132812 115.19009766 90.36132812 131.03009766 90.36132812 147.35009766 C91.35132812 147.35009766 92.34132813 147.35009766 93.36132812 147.35009766 C94.90852676 145.29254857 94.90852676 145.29254857 96.36132812 142.60009766 C106.16218082 126.6146398 121.39573407 113.17774713 139.83496094 108.46166992 C150.54093346 106.35846074 160.96882064 105.81135562 171.86132812 105.66259766 C173.57098775 105.62931368 175.28062417 105.59481448 176.99023438 105.55908203 C181.11393989 105.47325467 185.23692746 105.4121348 189.36132812 105.35009766 C188.37132812 96.44009766 188.37132812 96.44009766 187.36132812 87.35009766 C176.77353601 87.16924055 166.18677221 87.02252523 155.59778404 86.93560028 C150.68065307 86.89387679 145.76463496 86.83730274 140.84814453 86.74658203 C136.10182419 86.6595511 131.35657291 86.61180215 126.60951614 86.59107971 C124.80009758 86.57631612 122.99073653 86.54748401 121.18177414 86.5042572 C110.21203347 85.61898249 110.21203347 85.61898249 101.76611328 91.14892578 Z M285.36132812 87.35009766 C284.70132812 93.29009766 284.04132813 99.23009766 283.36132812 105.35009766 C285.84664063 105.38748047 288.33195312 105.42486328 290.89257812 105.46337891 C293.35863978 105.50987964 295.82456644 105.56100794 298.29052734 105.61254883 C299.97566189 105.64535534 301.6608947 105.67351726 303.34619141 105.6965332 C317.32139564 105.8923694 332.19481193 106.11654506 344.73632812 113.03759766 C345.3949585 113.3842749 346.05358887 113.73095215 346.73217773 114.08813477 C352.47739315 117.20889692 357.53897054 120.93109712 362.36132812 125.35009766 C362.99296875 125.91341797 363.62460937 126.47673828 364.27539062 127.05712891 C369.80769188 132.26041665 374.27107655 138.48205478 377.87695312 145.15478516 C378.36679687 145.87923828 378.85664063 146.60369141 379.36132812 147.35009766 C380.35132813 147.35009766 381.34132813 147.35009766 382.36132812 147.35009766 C382.36132812 131.51009766 382.36132812 115.67009766 382.36132812 99.35009766 C377.90632813 97.37009766 377.90632813 97.37009766 373.36132812 95.35009766 C370.92382812 92.78759766 370.92382812 92.78759766 369.36132812 90.35009766 C368.37132812 88.86509766 368.37132812 88.86509766 367.36132812 87.35009766 C364.69902779 87.06369607 362.2701626 86.97170387 359.60693359 87.00952148 C358.80684875 87.0090834 358.00676392 87.00864532 357.18243408 87.00819397 C354.53088194 87.01028843 351.87995766 87.03364994 349.22851562 87.05712891 C347.39291733 87.06272253 345.55731457 87.06699373 343.72171021 87.06999207 C338.88498621 87.08145922 334.04853149 87.11094238 329.21191406 87.144104 C324.27868289 87.17476468 319.34540831 87.18848882 314.41210938 87.20361328 C304.72837814 87.23581043 295.04491763 87.28859352 285.36132812 87.35009766 Z " fill="#FEDCCC" transform="translate(19.638671875,12.64990234375)"/>
<path d="M0 0 C6.6 0 13.2 0 20 0 C20.86625 1.69125 21.7325 3.3825 22.625 5.125 C24.56427487 8.77676103 26.12206712 11.3511599 29.4375 13.8125 C30.94140625 15.16796875 30.94140625 15.16796875 32 17 C32.23605287 21.72711008 31.57894725 26.31304442 31 31 C29.74889181 47.17958559 34.43293184 63.53070289 43.9453125 76.69140625 C49.01886679 82.39192067 55.86926101 86.4054858 63.4609375 87.28515625 C72.02398871 87.75288594 78.2296121 85.17055346 84.75 79.6875 C85.86375 78.3571875 85.86375 78.3571875 87 77 C87.47953125 76.44828125 87.9590625 75.8965625 88.453125 75.328125 C98.39245889 63.18005025 102.04310706 46.43372692 101 31 C100.86464844 29.80761719 100.72929687 28.61523438 100.58984375 27.38671875 C99.54394502 17.60807331 99.54394502 17.60807331 102.0625 14.25 C103.031875 13.5075 104.00125 12.765 105 12 C107.58381273 8.15819729 109.9289118 4.14217641 112 0 C118.6 0 125.2 0 132 0 C131.97679687 3.25617188 131.95359375 6.51234375 131.9296875 9.8671875 C131.91400943 13.08446871 131.90191134 16.30174537 131.89013672 19.51904297 C131.88019084 21.72414105 131.86662936 23.92922634 131.84912109 26.13427734 C131.69641373 45.8874246 131.89779309 66.19554176 138.75 85 C140.05722464 88.78956079 140.2793214 91.0820782 139 95 C138.24094419 96.46449801 137.46838411 97.92202369 136.6875 99.375 C130.27266304 111.83279931 129.31865254 125.23421006 129 139 C129.77601563 138.6390625 130.55203125 138.278125 131.3515625 137.90625 C140.469241 133.98934754 149.10640233 131.94698867 158.859375 134.8515625 C165.4379132 137.78200224 170.8284159 142.50714112 173.99169922 149.05175781 C175.36127554 153.05635917 175.9177035 157.05242419 176.5078125 161.234375 C176.63865738 162.13661301 176.76950226 163.03885101 176.90431213 163.96842957 C180.62902986 190.03195717 183.91577923 214.00166824 176.62988281 239.734375 C169.39048111 265.77377336 165.33099272 307.78965043 178.36807251 331.95295715 C181.75902803 337.72135545 185.66158996 343.12655624 189.9152832 348.28588867 C194.89175701 354.76480415 195.84515977 360.03645235 195 368 C193.25230248 373.44870404 189.60721838 376.78541808 185 380 C182.09107706 380.96964098 180.19373392 381.13718151 177.16479492 381.16113281 C176.18335007 381.17074036 175.20190521 381.1803479 174.1907196 381.19024658 C172.60164543 381.1966214 172.60164543 381.1966214 170.98046875 381.203125 C169.88914139 381.20882507 168.79781403 381.21452515 167.67341614 381.22039795 C165.36260956 381.22984864 163.05178949 381.2363822 160.7409668 381.24023438 C157.21183652 381.24993312 153.68329028 381.28095372 150.15429688 381.3125 C147.90885762 381.31903085 145.66341421 381.324281 143.41796875 381.328125 C142.36465866 381.3404718 141.31134857 381.3528186 140.22612 381.36553955 C133.78089841 381.3460192 129.03682343 380.85856125 124.13671875 376.24609375 C123.65847656 375.64925781 123.18023437 375.05242187 122.6875 374.4375 C122.19636719 373.83808594 121.70523438 373.23867188 121.19921875 372.62109375 C117.48199327 367.59617983 118.65859798 360.96405378 119 355 C119.58240684 351.60296151 120.35003707 348.28484683 121.13500977 344.92919922 C125.26931978 326.7466368 125.59682307 308.58557106 125.56542969 290.02913666 C125.56252509 287.89344525 125.56539871 285.75782043 125.5690918 283.62213135 C125.5786982 269.16043282 125.53434507 255.093803 122 241 C121.594828 239.00187096 121.19723053 237.00216544 120.8125 235 C120.54271996 233.66645315 120.27237185 232.3330199 120 231 C119.319375 231.32613281 118.63875 231.65226563 117.9375 231.98828125 C102.11009503 239.12324173 86.53667907 239.48579526 69.45507812 239.39111328 C66.00610812 239.37502849 62.55830963 239.39103907 59.109375 239.41015625 C42.27691512 239.42703291 27.42288051 238.39013024 12 231 C11.54098934 233.24645216 11.09259689 235.49388262 10.65991211 237.74560547 C10.23513388 239.84042375 9.76747499 241.92723309 9.24755859 244.00048828 C6.11084124 257.73701275 6.41032905 271.72133839 6.43457031 285.73990631 C6.43752226 287.89122185 6.43454775 290.04247309 6.4309082 292.19378662 C6.41883324 311.34510686 7.30930763 329.72915739 11.6875 348.4453125 C13.46500308 356.23049587 14.76198812 365.1371799 11.375 372.5625 C3.36116052 380.78722999 3.36116052 380.78722999 -2.21858215 381.14044189 C-3.08206772 381.1472699 -3.94555328 381.1540979 -4.83520508 381.16113281 C-5.81664993 381.17074036 -6.79809479 381.1803479 -7.8092804 381.19024658 C-9.39835457 381.1966214 -9.39835457 381.1966214 -11.01953125 381.203125 C-12.11085861 381.20882507 -13.20218597 381.21452515 -14.32658386 381.22039795 C-16.63739044 381.22984864 -18.94821051 381.2363822 -21.2590332 381.24023438 C-24.78816348 381.24993312 -28.31670972 381.28095372 -31.84570312 381.3125 C-34.09114238 381.31903085 -36.33658579 381.324281 -38.58203125 381.328125 C-39.63534134 381.3404718 -40.68865143 381.3528186 -41.77388 381.36553955 C-48.22039997 381.34601526 -52.92464019 380.83680989 -57.86328125 376.28125 C-58.34152344 375.6934375 -58.81976563 375.105625 -59.3125 374.5 C-59.80363281 373.9121875 -60.29476562 373.324375 -60.80078125 372.71875 C-62.97208792 369.60677953 -63.23690298 366.62893969 -63.375 362.9375 C-63.42398438 362.05964844 -63.47296875 361.18179687 -63.5234375 360.27734375 C-62.36555444 353.02761322 -58.47502791 347.40713725 -53.79296875 341.90234375 C-34.20442143 317.47906021 -38.49187009 284.47049739 -41.67120361 254.90286255 C-42.45772445 248.41134773 -43.73387166 242.14768355 -45.5625 235.875 C-51.47806354 214.90320622 -49.10569806 194.25710563 -46.25 172.9375 C-46.1236618 171.96302917 -45.99732361 170.98855835 -45.86715698 169.98455811 C-45.49649782 167.16277538 -45.10392692 164.34498744 -44.703125 161.52734375 C-44.59249222 160.68542984 -44.48185944 159.84351593 -44.36787415 158.97608948 C-43.06332274 150.25891786 -39.96565949 144.01352167 -33.05078125 138.4765625 C-25.81779159 133.26880994 -18.76765807 132.97282667 -10 134 C-5.49652701 135.33436237 -1.25633384 137.02030984 3 139 C2.63899955 123.40478041 1.17998934 109.34777859 -6.92578125 95.6484375 C-9.03951916 90.43711276 -6.53554574 85.13485008 -5.0625 79.9375 C0.14940653 60.9061799 0.14219022 41.76272694 0.0625 22.1875 C0.05747453 20.0306 0.05291348 17.87369886 0.04882812 15.71679688 C0.03876477 10.47781311 0.01917483 5.23898967 0 0 Z " fill="#FECDBF" transform="translate(190,118)"/>
<path d="M0 0 C1.40056014 -0.0165191 2.80103737 -0.04375655 4.20117188 -0.08203125 C17.33155783 -0.43883522 17.33155783 -0.43883522 21.25195312 2.74853516 C24.39568778 6.6258079 24.48454874 8.50758561 24.47485352 13.45214844 C24.47477798 14.7333255 24.47470245 16.01450256 24.47462463 17.33450317 C24.4695176 18.73813923 24.4643016 20.14177488 24.45898438 21.54541016 C24.45711958 22.97744701 24.45569597 24.4094845 24.45469666 25.84152222 C24.45087631 29.61283119 24.44105014 33.38410173 24.42999268 37.15539551 C24.41976818 41.00284302 24.41519681 44.85029673 24.41015625 48.69775391 C24.39942745 56.24855472 24.38183455 63.79931591 24.36132812 71.35009766 C31.95132813 71.35009766 39.54132812 71.35009766 47.36132812 71.35009766 C47.69132812 69.04009766 48.02132812 66.73009766 48.36132812 64.35009766 C51.0052273 61.13454461 53.46346176 58.80525277 57.36132812 57.35009766 C60.22545208 57.14562123 62.98952333 57.04601952 65.85351562 57.04931641 C66.6770755 57.04503128 67.50063538 57.04074615 68.34915161 57.03633118 C70.08904096 57.03059641 71.82895428 57.03008133 73.56884766 57.03442383 C76.22014673 57.0375784 78.8703236 57.0141336 81.52148438 56.98876953 C83.21549339 56.98649579 84.90950539 56.98579339 86.60351562 56.98681641 C87.39120331 56.97760666 88.17889099 56.96839691 88.990448 56.95890808 C95.04099959 57.00933138 99.26557758 58.25434711 103.67382812 62.66259766 C106.99435628 67.9508462 106.48606728 73.82758651 106.17382812 79.85009766 C106.15513672 80.58357422 106.13644531 81.31705078 106.1171875 82.07275391 C105.79361999 88.41921843 103.57969461 92.19010923 98.98632812 96.66259766 C96.36132812 98.35009766 96.36132812 98.35009766 90.36132812 99.35009766 C90.36132812 115.19009766 90.36132812 131.03009766 90.36132812 147.35009766 C91.35132812 147.35009766 92.34132813 147.35009766 93.36132812 147.35009766 C93.73064453 146.29048828 93.73064453 146.29048828 94.10742188 145.20947266 C101.14877855 129.15254715 117.77760308 115.57915301 133.85742188 109.12353516 C145.95874064 105.3855303 157.78981738 104.95723795 170.36132812 105.35009766 C172.25327607 130.89139485 172.5315912 156.54382571 167.42382812 181.72509766 C167.18744629 182.89407593 167.18744629 182.89407593 166.94628906 184.08666992 C165.9673705 188.55507024 164.60811343 192.31740609 162.36132812 196.35009766 C158.6755369 193.12095314 156.67776567 189.46356234 154.61132812 185.10009766 C154.13759766 184.12556641 154.13759766 184.12556641 153.65429688 183.13134766 C152.88258847 181.54116065 152.12092538 179.94610536 151.36132812 178.35009766 C148.49697064 177.97515893 146.2597478 177.8283323 143.70166016 179.31396484 C141.88694555 180.72839802 140.15257054 182.20677496 138.42382812 183.72509766 C137.08776212 184.84161303 135.74782078 185.95350527 134.40429688 187.06103516 C133.72802246 187.61887695 133.05174805 188.17671875 132.35498047 188.75146484 C117.17419033 200.92435412 91.50552156 220.43141653 71.36132812 218.35009766 C65.25483109 216.8178401 60.27083659 214.26829857 56.74589539 208.88131714 C54.85546218 204.05993016 54.96526069 199.79587195 55.02075195 194.66308594 C55.02031387 193.59907059 55.01987579 192.53505524 55.01942444 191.438797 C55.0215094 187.93247944 55.04482734 184.42664388 55.06835938 180.92041016 C55.07395635 178.48518129 55.07822597 176.04994903 55.08122253 173.61471558 C55.09266321 167.21299879 55.12212404 160.81148701 55.15533447 154.40985107 C55.18605191 147.87433648 55.19973147 141.33878867 55.21484375 134.80322266 C55.2469942 121.98542699 55.29760272 109.16777324 55.36132812 96.35009766 C54.73742187 96.07166016 54.11351563 95.79322266 53.47070312 95.50634766 C50.67023575 93.97127665 49.77063457 92.16871054 48.36132812 89.35009766 C48.36132812 88.69009766 48.36132812 88.03009766 48.36132812 87.35009766 C40.44132812 87.35009766 32.52132812 87.35009766 24.36132812 87.35009766 C24.38751221 89.25742676 24.41369629 91.16475586 24.44067383 93.12988281 C24.52142303 99.44414311 24.57880704 105.75828087 24.62038898 112.07291603 C24.64644121 115.90014204 24.68175703 119.72680751 24.73852539 123.55371094 C24.79300468 127.2495916 24.82278156 130.94493444 24.83571434 134.64118576 C24.84492599 136.04860268 24.86291491 137.45599141 24.88997841 138.86317825 C25.1191106 151.27499265 25.1191106 151.27499265 21.95581055 155.19921875 C16.74640039 159.51792614 11.13227192 158.57227674 4.66772461 158.59033203 C2.56713901 158.60001326 0.46754238 158.6310245 -1.6328125 158.66259766 C-2.97460358 158.66913052 -4.31640164 158.67437988 -5.65820312 158.67822266 C-6.87612549 158.68756836 -8.09404785 158.69691406 -9.34887695 158.70654297 C-12.94970992 158.31639706 -14.7765454 157.52997491 -17.63867188 155.35009766 C-19.94728344 151.88718031 -19.8950306 150.56481874 -19.91282654 146.48025513 C-19.92280167 145.25489044 -19.93277679 144.02952576 -19.9430542 142.76702881 C-19.94395001 141.40686048 -19.94461358 140.04669198 -19.94506836 138.68652344 C-19.95268886 137.25578376 -19.96111617 135.82504818 -19.97029114 134.39431763 C-19.99225384 130.50584594 -20.00103738 126.61745289 -20.00611758 122.72892618 C-20.00975904 120.29980312 -20.01599799 117.87070073 -20.02311897 115.44158554 C-20.04761953 106.96788374 -20.06066669 98.49424322 -20.06420898 90.02050781 C-20.06784485 82.12068188 -20.09774205 74.22124434 -20.13961357 66.32153714 C-20.17429814 59.54012472 -20.1897571 52.75884112 -20.19045502 45.97734058 C-20.19124847 41.92661697 -20.20001749 37.87628889 -20.22845268 33.82565689 C-20.25460241 30.01533494 -20.25685659 26.20573728 -20.24079704 22.39536667 C-20.23898004 20.99774854 -20.24569623 19.60008907 -20.26161575 18.20256042 C-20.38873509 6.31754922 -20.38873509 6.31754922 -17.22621155 3.04244995 C-11.77103557 -0.5254488 -6.3314866 0.05468371 0 0 Z " fill="#FEDECE" transform="translate(19.638671875,12.64990234375)"/>
<path d="M0 0 C6.6 0 13.2 0 20 0 C20.86625 1.69125 21.7325 3.3825 22.625 5.125 C24.56427487 8.77676103 26.12206712 11.3511599 29.4375 13.8125 C30.94140625 15.16796875 30.94140625 15.16796875 32 17 C32.23605287 21.72711008 31.57894725 26.31304442 31 31 C29.74889181 47.17958559 34.43293184 63.53070289 43.9453125 76.69140625 C49.01886679 82.39192067 55.86926101 86.4054858 63.4609375 87.28515625 C72.02398871 87.75288594 78.2296121 85.17055346 84.75 79.6875 C85.4925 78.800625 86.235 77.91375 87 77 C87.47953125 76.44828125 87.9590625 75.8965625 88.453125 75.328125 C98.39245889 63.18005025 102.04310706 46.43372692 101 31 C100.86464844 29.80761719 100.72929687 28.61523438 100.58984375 27.38671875 C99.54394502 17.60807331 99.54394502 17.60807331 102.0625 14.25 C103.031875 13.5075 104.00125 12.765 105 12 C107.58381273 8.15819729 109.9289118 4.14217641 112 0 C118.6 0 125.2 0 132 0 C131.97679687 3.25617188 131.95359375 6.51234375 131.9296875 9.8671875 C131.91400943 13.08446871 131.90191134 16.30174537 131.89013672 19.51904297 C131.88019084 21.72414105 131.86662936 23.92922634 131.84912109 26.13427734 C131.69641373 45.8874246 131.89779309 66.19554176 138.75 85 C140.05722464 88.78956079 140.2793214 91.0820782 139 95 C138.24094419 96.46449801 137.46838411 97.92202369 136.6875 99.375 C130.27266304 111.83279931 129.31865254 125.23421006 129 139 C128.23816406 139.29132813 127.47632813 139.58265625 126.69140625 139.8828125 C113.83291205 144.98768286 106.28291828 150.73504594 98.8125 162.375 C96.29875638 166.0155942 94.17237061 167.6092098 90 169 C88.42135475 169.10654356 86.83872112 169.15858593 85.2565918 169.17700195 C84.29516769 169.18983719 83.33374359 169.20267242 82.34318542 169.21589661 C81.30567642 169.22328354 80.26816742 169.23067047 79.19921875 169.23828125 C77.59552177 169.25038887 77.59552177 169.25038887 75.95942688 169.26274109 C73.69570536 169.27657591 71.43196303 169.28730076 69.16821289 169.29516602 C65.71134826 169.31238124 62.25543939 169.35627416 58.79882812 169.40039062 C56.59896536 169.41051753 54.39909447 169.41903364 52.19921875 169.42578125 C51.16778244 169.44328934 50.13634613 169.46079742 49.07365417 169.47883606 C43.04657873 169.46067459 39.58800954 169.01948124 35 165 C33.05859375 162.6328125 33.05859375 162.6328125 31.4375 160.125 C30.84453125 159.24585938 30.2515625 158.36671875 29.640625 157.4609375 C28.82851562 156.24277344 28.82851562 156.24277344 28 155 C21.8641264 146.37661007 12.70158354 142.50908341 3 139 C2.97421875 137.88625 2.9484375 136.7725 2.921875 135.625 C2.44510488 121.17519795 0.56203004 108.30338249 -6.92578125 95.6484375 C-9.03951916 90.43711276 -6.53554574 85.13485008 -5.0625 79.9375 C0.14940653 60.9061799 0.14219022 41.76272694 0.0625 22.1875 C0.05747453 20.0306 0.05291348 17.87369886 0.04882812 15.71679688 C0.03876477 10.47781311 0.01917483 5.23898967 0 0 Z " fill="#FDA95C" transform="translate(190,118)"/>
<path d="M0 0 C7.67267004 5.68953785 10.94342473 11.98524872 12.33262634 21.26142883 C12.45360184 22.11875107 12.57457733 22.9760733 12.69921875 23.859375 C12.83006363 24.76161301 12.96090851 25.66385101 13.09571838 26.59342957 C16.82043611 52.65695717 20.10718548 76.62666824 12.82128906 102.359375 C5.58188736 128.39877336 1.52239897 170.41465043 14.55947876 194.57795715 C17.95043428 200.34635545 21.85299621 205.75155624 26.10668945 210.91088867 C31.08316326 217.38980415 32.03656602 222.66145235 31.19140625 230.625 C29.44370873 236.07370404 25.79862463 239.41041808 21.19140625 242.625 C18.28248331 243.59464098 16.38514017 243.76218151 13.35620117 243.78613281 C12.37475632 243.79574036 11.39331146 243.8053479 10.38212585 243.81524658 C8.79305168 243.8216214 8.79305168 243.8216214 7.171875 243.828125 C6.08054764 243.83382507 4.98922028 243.83952515 3.86482239 243.84539795 C1.55401581 243.85484864 -0.75680426 243.8613822 -3.06762695 243.86523438 C-6.59675723 243.87493312 -10.12530347 243.90595372 -13.65429688 243.9375 C-15.89973613 243.94403085 -18.14517954 243.949281 -20.390625 243.953125 C-21.44393509 243.9654718 -22.49724518 243.9778186 -23.58247375 243.99053955 C-30.02769534 243.9710192 -34.77177032 243.48356125 -39.671875 238.87109375 C-40.38923828 237.97583984 -40.38923828 237.97583984 -41.12109375 237.0625 C-41.61222656 236.46308594 -42.10335938 235.86367188 -42.609375 235.24609375 C-46.32660048 230.22117983 -45.14999577 223.58905378 -44.80859375 217.625 C-44.22618691 214.22796151 -43.45855668 210.90984683 -42.67358398 207.55419922 C-38.53927397 189.3716368 -38.21177068 171.21057106 -38.24316406 152.65413666 C-38.24606866 150.51844525 -38.24319504 148.38282043 -38.23950195 146.24713135 C-38.22994154 131.78528992 -38.26848264 117.71696825 -41.80859375 103.625 C-42.36680418 101.06581054 -42.89851573 98.50168051 -43.43359375 95.9375 C-43.67335938 94.84050781 -43.913125 93.74351562 -44.16015625 92.61328125 C-44.48113281 91.13408203 -44.48113281 91.13408203 -44.80859375 89.625 C-44.98205322 88.8522876 -45.1555127 88.0795752 -45.33422852 87.28344727 C-49.02146063 66.61938627 -47.88860471 24.36986082 -35.80859375 6.625 C-26.78642642 -4.52927156 -12.74503005 -7.39085762 0 0 Z " fill="#FFCEBF" transform="translate(353.80859375,255.375)"/>
<path d="M0 0 C0 0.66 0 1.32 0 2 C0.54527344 2.14695313 1.09054688 2.29390625 1.65234375 2.4453125 C12.85627929 5.77776512 21.47999616 12.49725251 27.5390625 22.5546875 C31.55351061 30.27839176 33.31115997 37.11695654 33.3359375 45.7578125 C33.3459227 46.99517654 33.3459227 46.99517654 33.35610962 48.25753784 C33.36618891 49.99719024 33.37092811 51.73688093 33.37060547 53.4765625 C33.37495359 56.09702802 33.41125248 58.71577196 33.44921875 61.3359375 C33.56336414 78.07020817 30.42690968 90.40842814 18.31640625 102.73046875 C10.7081147 109.87445402 3.33919163 116.56551235 -7.5546875 116.3203125 C-17.49678059 115.0179936 -25.22123048 105.71699314 -32 99 C-32.65613281 98.35675781 -33.31226563 97.71351563 -33.98828125 97.05078125 C-42.31451026 88.16516735 -44 77.82277055 -44 66 C-71.06 66 -98.12 66 -126 66 C-126 60.72 -126 55.44 -126 50 C-98.94 50 -71.88 50 -44 50 C-44 45.71 -44 41.42 -44 37 C-40.73388153 24.43800589 -34.47862653 13.1534509 -23.1015625 6.23828125 C-15.55136056 2.31103515 -8.64235654 -0.43211783 0 0 Z " fill="#FEDECE" transform="translate(251,34)"/>
<path d="M0 0 C12.4670447 2.6347878 24.45387872 6.69848089 31.83984375 17.75390625 C32.98253036 19.63171291 34.0940079 21.5290954 35.1640625 23.44921875 C37.38010757 26.5281069 39.52739207 28.5189193 43 30 C46.70168051 30.57023283 50.35448601 30.53719529 54.09375 30.49609375 C55.69107971 30.4982766 55.69107971 30.4982766 57.32067871 30.50050354 C59.56651553 30.49884753 61.81236405 30.48731981 64.05810547 30.46655273 C67.48844798 30.43759751 70.91724402 30.44595127 74.34765625 30.45898438 C76.53386165 30.45274648 78.72006219 30.44435515 80.90625 30.43359375 C81.92827515 30.43652939 82.95030029 30.43946503 84.0032959 30.44248962 C89.40416086 30.37121862 93.35944762 30.08482775 98 27 C99.96641449 24.80154398 99.96641449 24.80154398 101.5 22.25 C102.09167969 21.363125 102.68335938 20.47625 103.29296875 19.5625 C104.13794922 18.2940625 104.13794922 18.2940625 105 17 C112.01741826 7.15638863 122.33003385 2.45951321 134 0 C134.99 0.495 134.99 0.495 136 1 C135.52949219 1.4846875 135.05898438 1.969375 134.57421875 2.46875 C133.95160156 3.1390625 133.32898438 3.809375 132.6875 4.5 C132.07261719 5.1496875 131.45773437 5.799375 130.82421875 6.46875 C125.29727893 14.13782282 124.94005328 23.39496372 123.875 32.5 C123.70533527 33.88943412 123.53476854 35.2787584 123.36328125 36.66796875 C123.03724011 39.31685015 122.72045569 41.96628295 122.40869141 44.61694336 C122.10629694 47.12009755 121.76351293 49.60500312 121.390625 52.09765625 C120.79558538 58.04210205 120.85619697 63.96753711 120.875 69.9375 C120.87113281 71.16146484 120.86726563 72.38542969 120.86328125 73.64648438 C120.87031389 80.18332251 121.11943108 86.52152863 122 93 C105.49101217 100.91055667 89.43906687 101.49079713 71.45507812 101.39111328 C68.00610812 101.37502849 64.55830963 101.39103907 61.109375 101.41015625 C44.27691512 101.42703291 29.42288051 100.39013024 14 93 C14.144375 92.1028125 14.28875 91.205625 14.4375 90.28125 C14.7159375 88.40953125 14.7159375 88.40953125 15 86.5 C15.185625 85.2934375 15.37125 84.086875 15.5625 82.84375 C17.05125321 69.11379945 15.51742358 55.72156873 13.65625 42.11621094 C13.24806561 39.11075712 12.86538547 36.10275575 12.484375 33.09375 C12.22547985 31.14823442 11.96511477 29.20291376 11.703125 27.2578125 C11.59252747 26.37529816 11.48192993 25.49278381 11.36798096 24.58352661 C9.97923502 14.748969 6.88407195 7.19698431 0 0 Z " fill="#678D97" transform="translate(188,256)"/>
<path d="M0 0 C2.0898686 -0.0171578 4.17813146 -0.06103617 6.26757812 -0.10522461 C7.6061082 -0.11535709 8.94465169 -0.12387146 10.28320312 -0.13061523 C12.10223145 -0.15248901 12.10223145 -0.15248901 13.95800781 -0.17480469 C18.02576609 0.38691946 20.18060902 1.74780479 23.36132812 4.29516602 C24.70132718 6.97516412 24.49956894 9.04256049 24.51522827 12.04475403 C24.52382874 13.26874405 24.5324292 14.49273407 24.54129028 15.7538147 C24.54572563 17.11761432 24.55002398 18.4814144 24.55419922 19.84521484 C24.56209938 21.27580465 24.57036828 22.70639245 24.57897949 24.13697815 C24.60520854 28.8420318 24.62050752 33.5470944 24.63476562 38.25219727 C24.64012485 39.8710652 24.64550236 41.48993307 24.65089798 43.10880089 C24.67252758 49.84201823 24.69126493 56.57523315 24.70252037 63.30847645 C24.7187639 72.96262823 24.75195016 82.6163778 24.80892122 92.27037793 C24.84760193 99.05600297 24.86715079 105.84152035 24.87244093 112.62725276 C24.87609688 116.68136504 24.88814318 120.73504844 24.92054367 124.78904152 C24.95059208 128.60342757 24.95694819 132.41712451 24.94515991 136.23160362 C24.9449389 137.63084353 24.95326681 139.0301151 24.97081375 140.429245 C25.11191928 152.32912203 25.11191928 152.32912203 21.94985962 155.60380554 C16.49308812 159.16928954 11.05455565 158.5905764 4.72265625 158.64526367 C3.32209611 158.66178277 1.92161888 158.68902022 0.52148438 158.72729492 C-12.60890158 159.08409889 -12.60890158 159.08409889 -16.52929688 155.89672852 C-19.56359583 152.15442648 -19.76739215 150.38318404 -19.79257202 145.62823486 C-19.80547272 143.81966003 -19.80547272 143.81966003 -19.81863403 141.97454834 C-19.8230694 140.63122602 -19.82736774 139.28790324 -19.83154297 137.94458008 C-19.83944328 136.53531695 -19.84771219 135.12605584 -19.85632324 133.71679688 C-19.88255362 129.08148127 -19.8978528 124.44615659 -19.91210938 119.81079102 C-19.91746881 118.21547184 -19.92284632 116.62015273 -19.92824173 115.02483368 C-19.94987277 108.38855396 -19.96860929 101.75227668 -19.97986412 95.11597061 C-19.99610168 85.6039544 -20.02927181 76.09234679 -20.08626497 66.58048463 C-20.12496701 59.89335697 -20.14449716 53.20633858 -20.14978468 46.51910186 C-20.1534381 42.5247585 -20.16545734 38.53085086 -20.19788742 34.53662872 C-20.22797286 30.77722872 -20.23427872 27.01852792 -20.22250366 23.2590332 C-20.22228295 21.88117618 -20.23058603 20.50328668 -20.2481575 19.12554169 C-20.38924932 7.42333779 -20.38924932 7.42333779 -17.22720337 3.49090576 C-12.06788575 -0.8855211 -6.45643989 0.03692408 0 0 Z " fill="#4E737C" transform="translate(487.638671875,12.704833984375)"/>
<path d="M0 0 C1.40056014 -0.0165191 2.80103737 -0.04375655 4.20117188 -0.08203125 C17.33155783 -0.43883522 17.33155783 -0.43883522 21.25195312 2.74853516 C24.28625208 6.4908372 24.4900484 8.26207963 24.51522827 13.01702881 C24.52382874 14.22274536 24.5324292 15.42846191 24.54129028 16.67071533 C24.54572565 18.01403766 24.55002399 19.35736044 24.55419922 20.70068359 C24.56209953 22.10994672 24.57036844 23.51920783 24.57897949 24.9284668 C24.60520987 29.5637824 24.62050905 34.19910708 24.63476562 38.83447266 C24.64012506 40.42979183 24.64550257 42.02511094 24.65089798 43.62042999 C24.67252902 50.25670972 24.69126554 56.892987 24.70252037 63.52929306 C24.71875793 73.04130928 24.75192806 82.55291688 24.80892122 92.06477904 C24.84762326 98.7519067 24.86715341 105.43892509 24.87244093 112.12616181 C24.87609435 116.12050517 24.88811359 120.11441281 24.92054367 124.10863495 C24.95062911 127.86803495 24.95693497 131.62673575 24.94515991 135.38623047 C24.9449392 136.76408749 24.95324228 138.14197699 24.97081375 139.51972198 C25.11190557 151.22192588 25.11190557 151.22192588 21.94985962 155.15435791 C16.77361494 159.54514327 11.14172985 158.57225032 4.66772461 158.59033203 C2.56713901 158.60001326 0.46754238 158.6310245 -1.6328125 158.66259766 C-2.97460358 158.66913052 -4.31640164 158.67437988 -5.65820312 158.67822266 C-6.87612549 158.68756836 -8.09404785 158.69691406 -9.34887695 158.70654297 C-12.94970992 158.31639706 -14.7765454 157.52997491 -17.63867188 155.35009766 C-19.94728344 151.88718031 -19.8950306 150.56481874 -19.91282654 146.48025513 C-19.92280167 145.25489044 -19.93277679 144.02952576 -19.9430542 142.76702881 C-19.94395001 141.40686048 -19.94461358 140.04669198 -19.94506836 138.68652344 C-19.95268886 137.25578376 -19.96111617 135.82504818 -19.97029114 134.39431763 C-19.99225384 130.50584594 -20.00103738 126.61745289 -20.00611758 122.72892618 C-20.00975904 120.29980312 -20.01599799 117.87070073 -20.02311897 115.44158554 C-20.04761953 106.96788374 -20.06066669 98.49424322 -20.06420898 90.02050781 C-20.06784485 82.12068188 -20.09774205 74.22124434 -20.13961357 66.32153714 C-20.17429814 59.54012472 -20.1897571 52.75884112 -20.19045502 45.97734058 C-20.19124847 41.92661697 -20.20001749 37.87628889 -20.22845268 33.82565689 C-20.25460241 30.01533494 -20.25685659 26.20573728 -20.24079704 22.39536667 C-20.23898004 20.99774854 -20.24569623 19.60008907 -20.26161575 18.20256042 C-20.38873509 6.31754922 -20.38873509 6.31754922 -17.22621155 3.04244995 C-11.77103557 -0.5254488 -6.3314866 0.05468371 0 0 Z " fill="#4E737C" transform="translate(19.638671875,12.64990234375)"/>
<path d="M0 0 C16.67252626 -0.77048902 29.5386078 2.12166785 42.1875 13.625 C50.68675963 22.46355143 54.30268324 34.02929775 54.3359375 46.046875 C54.3459227 47.32464813 54.3459227 47.32464813 54.35610962 48.62823486 C54.36618905 50.42335874 54.37092811 52.21851973 54.37060547 54.01367188 C54.37496549 56.72850916 54.4112978 59.44170101 54.44921875 62.15625 C54.52904063 74.25295043 53.23282014 83.67253437 46.5 94.0625 C45.9328125 94.96097656 45.365625 95.85945313 44.78125 96.78515625 C42.96822873 99.03950507 41.66690602 99.96481937 39 101 C39.2165625 102.32451172 39.2165625 102.32451172 39.4375 103.67578125 C42.4866254 123.38922391 40.72114488 141.95335089 29.25 158.875 C24.39469134 165.23554612 18.57570578 169.4168465 11 172 C1.8243774 173.21214062 -5.57822689 170.94784874 -13.1875 165.875 C-24.63910069 155.23212817 -30.02074193 139.1336195 -31.25 123.90234375 C-31.40653942 116.47650523 -30.31742104 109.29286648 -29 102 C-21.50232558 107.58139535 -21.50232558 107.58139535 -18.375 110.1875 C-13.49475933 113.91189419 -9.58657166 115.3262199 -3.5390625 115.49609375 C3.35047404 114.1499843 8.88105113 109.89984051 14.0625 105.375 C14.66884277 104.84575928 15.27518555 104.31651855 15.89990234 103.77124023 C25.68164012 95.00399261 31.52612808 84.77416103 32.38330078 71.48413086 C32.55132979 67.32701273 32.56267503 63.17572971 32.52148438 59.01586914 C32.49999884 56.43736078 32.52140665 53.86162845 32.546875 51.28320312 C32.57349353 36.11565293 29.62348448 24.55421299 19.2265625 13.03515625 C13.7033506 7.71003423 7.01254959 4.91833238 0 2 C0 1.34 0 0.68 0 0 Z " fill="#FECEBF" transform="translate(251,34)"/>
<path d="M0 0 C6.13190417 2.99465087 9.98898618 7.09745597 12.6875 13.3125 C14.16617861 18.57384481 14.91341347 23.91357443 15.6875 29.3125 C15.85668945 30.4380127 16.02587891 31.56352539 16.20019531 32.72314453 C20.17079945 59.42215433 21.03765319 82.58696384 13.5546875 108.77734375 C11.45403796 117.34080246 11.48263038 125.88091508 11.37109375 134.65625 C11.35048513 136.03487719 11.32948774 137.41349861 11.30812073 138.79211426 C11.25330309 142.39558198 11.20371859 145.99910285 11.15527344 149.60266113 C11.10476132 153.28984222 11.0492314 156.97694749 10.99414062 160.6640625 C10.88705318 167.88014553 10.78596614 175.09629324 10.6875 182.3125 C2.7675 182.3125 -5.1525 182.3125 -13.3125 182.3125 C-13.32708252 180.518125 -13.34166504 178.72375 -13.35668945 176.875 C-13.40878551 170.87986833 -13.47418364 164.88499909 -13.54821491 158.8901062 C-13.59253689 155.263024 -13.6318711 151.63604434 -13.65893555 148.00878906 C-13.71977253 125.98112599 -13.71977253 125.98112599 -17.3125 104.3125 C-17.87136461 101.75343359 -18.40270602 99.18926415 -18.9375 96.625 C-19.17726563 95.52800781 -19.41703125 94.43101562 -19.6640625 93.30078125 C-19.98503906 91.82158203 -19.98503906 91.82158203 -20.3125 90.3125 C-20.48595947 89.5397876 -20.65941895 88.7670752 -20.83813477 87.97094727 C-24.50718007 67.40880918 -23.43882389 24.92719067 -11.3125 7.3125 C-3.94703195 -1.17344193 -3.94703195 -1.17344193 0 0 Z " fill="#FEDECE" transform="translate(329.3125,254.6875)"/>
<path d="M0 0 C7.35913661 4.38043846 12.20901872 9.79802559 15 18 C15.72867491 21.37178998 16.1749328 24.76236024 16.60546875 28.18359375 C16.79886589 29.64334373 16.79886589 29.64334373 16.99617004 31.13258362 C17.26575677 33.18856392 17.53019948 35.24522452 17.78979492 37.30249023 C18.18255537 40.3985227 18.59686294 43.49110909 19.01367188 46.58398438 C21.71573673 67.18120977 21.31381938 85.24292111 15.76489258 105.37817383 C15.55243896 106.1492749 15.33998535 106.92037598 15.12109375 107.71484375 C14.9295874 108.39667725 14.73808105 109.07851074 14.54077148 109.78100586 C13.33005565 114.74904026 12.86423314 119.54059529 12.79467773 124.64794922 C12.77473251 125.94884491 12.75478729 127.2497406 12.73423767 128.59005737 C12.71725841 129.9949329 12.70037943 131.39980965 12.68359375 132.8046875 C12.66300003 134.25343384 12.64200296 135.7021745 12.62062073 137.15090942 C12.56564953 140.94839858 12.51613114 144.7459397 12.46777344 148.54351807 C12.41737522 152.42489195 12.36178516 156.30619116 12.30664062 160.1875 C12.19936463 167.79160496 12.09833325 175.39577317 12 183 C4.41 183 -3.18 183 -11 183 C-11.01981934 181.35708984 -11.03963867 179.71417969 -11.06005859 178.02148438 C-11.1368205 171.85614117 -11.22542214 165.69101257 -11.31738281 159.52587891 C-11.35636575 156.87061812 -11.39028298 154.2154335 -11.421875 151.56005859 C-11.62427203 125.43205094 -11.62427203 125.43205094 -16.5625 99.875 C-22.47806354 78.90320622 -20.10569806 58.25710563 -17.25 36.9375 C-17.1236618 35.96302917 -16.99732361 34.98855835 -16.86715698 33.98455811 C-16.49649782 31.16277538 -16.10392692 28.34498744 -15.703125 25.52734375 C-15.53717583 24.26447289 -15.53717583 24.26447289 -15.36787415 22.97608948 C-14.2490671 15.50008432 -11.90439261 8.93415753 -5.875 4.0625 C-5.19179687 3.49660156 -4.50859375 2.93070312 -3.8046875 2.34765625 C-2 1 -2 1 0 0 Z " fill="#FFDECE" transform="translate(161,254)"/>
<path d="M0 0 C39.00632767 -5.07067528 39.00632767 -5.07067528 49.16473389 1.37316895 C56.96388517 8.31267706 61.19271622 18.7404101 64.66113281 28.38134766 C65.90182532 31.73465626 67.40343691 34.80745124 69 38 C69.87423155 44.10247904 69.68525761 49.88819106 66 55 C61.34499383 59.66601091 57.91553742 62.10775139 51.16479492 62.16113281 C49.69262764 62.17554413 49.69262764 62.17554413 48.1907196 62.19024658 C46.60164543 62.1966214 46.60164543 62.1966214 44.98046875 62.203125 C43.34347771 62.21167511 43.34347771 62.21167511 41.67341614 62.22039795 C39.36260956 62.22984864 37.05178949 62.2363822 34.7409668 62.24023438 C31.21183652 62.24993312 27.68329028 62.28095372 24.15429688 62.3125 C21.90885762 62.31903085 19.66341421 62.324281 17.41796875 62.328125 C16.36465866 62.3404718 15.31134857 62.3528186 14.22612 62.36553955 C7.78089841 62.3460192 3.03682343 61.85856125 -1.86328125 57.24609375 C-2.34152344 56.64925781 -2.81976563 56.05242187 -3.3125 55.4375 C-3.80363281 54.83808594 -4.29476563 54.23867188 -4.80078125 53.62109375 C-9.12203447 47.77966025 -7.42488788 38.58577715 -6.44970703 31.69726562 C-5.8609074 27.96208249 -5.19139267 24.24317113 -4.49145508 20.52734375 C-4.0555364 18.21302989 -3.63674155 15.89608808 -3.22070312 13.578125 C-2.95147511 12.09878434 -2.68132846 10.61961051 -2.41015625 9.140625 C-2.28407486 8.45115784 -2.15799347 7.76169067 -2.02809143 7.05133057 C-1.11842091 2.23684182 -1.11842091 2.23684182 0 0 Z " fill="#678D98" transform="translate(316,437)"/>
<path d="M0 0 C10.19949303 42.98572683 10.19949303 42.98572683 5.375 53.5625 C-2.63883948 61.78722999 -2.63883948 61.78722999 -8.21858215 62.14044189 C-9.08206772 62.1472699 -9.94555328 62.1540979 -10.83520508 62.16113281 C-12.30737236 62.17554413 -12.30737236 62.17554413 -13.8092804 62.19024658 C-15.39835457 62.1966214 -15.39835457 62.1966214 -17.01953125 62.203125 C-18.65652229 62.21167511 -18.65652229 62.21167511 -20.32658386 62.22039795 C-22.63739044 62.22984864 -24.94821051 62.2363822 -27.2590332 62.24023438 C-30.78816348 62.24993312 -34.31670972 62.28095372 -37.84570312 62.3125 C-40.09114238 62.31903085 -42.33658579 62.324281 -44.58203125 62.328125 C-45.63534134 62.3404718 -46.68865143 62.3528186 -47.77388 62.36553955 C-54.22039997 62.34601526 -58.92464019 61.83680989 -63.86328125 57.28125 C-64.34152344 56.6934375 -64.81976563 56.105625 -65.3125 55.5 C-65.80363281 54.9121875 -66.29476562 54.324375 -66.80078125 53.71875 C-68.97208792 50.60677953 -69.23690298 47.62893969 -69.375 43.9375 C-69.42398438 43.05964844 -69.47296875 42.18179688 -69.5234375 41.27734375 C-68.88763121 37.29643719 -67.34008145 34.46892789 -65.44677734 30.93676758 C-63.83376982 27.66257461 -62.66829104 24.33643712 -61.4453125 20.8984375 C-50.16311427 -7.3578934 -26.71468225 -3.01421702 0 0 Z " fill="#678D97" transform="translate(196,437)"/>
<path d="M0 0 C3.70390021 2.02666238 5.65363011 3.48044516 8 7 C8.25447559 9.57005024 8.25447559 9.57005024 8.26069641 12.71125793 C8.26778122 13.90152084 8.27486603 15.09178375 8.28216553 16.31811523 C8.27968811 17.62570801 8.27721069 18.93330078 8.2746582 20.28051758 C8.27900502 21.67022476 8.28418807 23.05992953 8.29014587 24.44963074 C8.30355305 28.22662194 8.30411246 32.00351317 8.30158257 35.78052354 C8.30051365 38.93399827 8.30539442 42.08745271 8.310188 45.24092311 C8.32128993 52.68252208 8.32171727 60.12407058 8.31567383 67.56567383 C8.30963763 75.23930362 8.32193441 82.91274988 8.3432439 90.58634835 C8.36086917 97.17584426 8.36685965 103.7652818 8.36360615 110.3548004 C8.36179402 114.28974912 8.36442204 118.22456704 8.37832069 122.1594944 C8.39090891 125.8621692 8.38894572 129.56455859 8.37590981 133.26722908 C8.37242136 135.26992666 8.38371577 137.27263299 8.39547729 139.27529907 C8.38846298 140.47402145 8.38144867 141.67274384 8.3742218 142.90779114 C8.37438954 143.94552075 8.37455729 144.98325037 8.37473011 146.05242634 C7.79929524 150.57871501 6.26689609 153.94425326 2.75 156.875 C-0.76165971 158.31158806 -3.23307391 158.40359922 -7 158 C-10.5386994 156.34860695 -11.81070153 155.28394771 -14 152 C-14.26006222 149.36468697 -14.26006222 149.36468697 -14.27415466 146.13015747 C-14.28412979 144.90479279 -14.29410492 143.6794281 -14.30438232 142.41693115 C-14.30527814 141.05676282 -14.3059417 139.69659433 -14.30639648 138.33642578 C-14.31401698 136.9056861 -14.32244429 135.47495053 -14.33161926 134.04421997 C-14.35358196 130.15574828 -14.3623655 126.26735524 -14.36744571 122.37882853 C-14.37108716 119.94970547 -14.37732611 117.52060307 -14.3844471 115.09148788 C-14.40894766 106.61778609 -14.42199482 98.14414556 -14.42553711 89.67041016 C-14.42917298 81.77058423 -14.45907018 73.87114668 -14.50094169 65.97143948 C-14.53562626 59.19002706 -14.55108523 52.40874346 -14.55178314 45.62724292 C-14.55257659 41.57651932 -14.56134561 37.52619123 -14.58978081 33.47555923 C-14.61593054 29.66523729 -14.61818472 25.85563963 -14.60212517 22.04526901 C-14.60030816 20.64765088 -14.60702435 19.24999141 -14.62294388 17.85246277 C-14.75006321 5.96745156 -14.75006321 5.96745156 -11.58753967 2.69235229 C-7.41824721 -0.03452828 -5.04602711 -0.42050226 0 0 Z " fill="#668C97" transform="translate(14,13)"/>
<path d="M0 0 C3.70390021 2.02666238 5.65363011 3.48044516 8 7 C8.25726891 9.60407829 8.25726891 9.60407829 8.26742554 12.79391479 C8.27595551 14.00245117 8.28448547 15.21098755 8.29327393 16.45614624 C8.29257488 17.79742445 8.29165181 19.13870255 8.29052734 20.47998047 C8.296511 21.89101518 8.30331617 23.30204662 8.31088257 24.71307373 C8.32856696 28.54783771 8.33323898 32.38251247 8.33451414 36.21731329 C8.33641252 39.41810492 8.34376939 42.61887573 8.35085833 45.81965935 C8.36714933 53.37148283 8.37202666 60.92325862 8.37060547 68.47509766 C8.36940398 76.2658071 8.39050544 84.05623954 8.4220928 91.84687889 C8.44824337 98.53487352 8.45897327 105.22277762 8.45769465 111.91082299 C8.45718463 115.90559186 8.46288941 119.90011464 8.48405075 123.89483261 C8.50341273 127.65255449 8.50357203 131.40979503 8.48901749 135.16753387 C8.48692568 136.54579242 8.49165255 137.92408092 8.5037384 139.30228806 C8.51918162 141.18550389 8.50748795 143.06888372 8.49447632 144.95211792 C8.49556585 146.00551802 8.49665539 147.05891811 8.49777794 148.14423943 C7.76923498 152.32390287 5.58333532 154.85344684 2.1875 157.3125 C-1.10980714 158.34879653 -3.55879764 158.41531753 -7 158 C-9.97239241 156.21523759 -12.42604027 154.14791945 -14 151 C-14.10431514 149.11320792 -14.1438935 147.22271587 -14.15390015 145.33306885 C-14.16680084 143.52449402 -14.16680084 143.52449402 -14.17996216 141.67938232 C-14.18439752 140.33606 -14.18869587 138.99273722 -14.19287109 137.64941406 C-14.20077141 136.24015093 -14.20904031 134.83088983 -14.21765137 133.42163086 C-14.24388175 128.78631526 -14.25918092 124.15099057 -14.2734375 119.515625 C-14.27879694 117.92030583 -14.28417445 116.32498672 -14.28956985 114.72966766 C-14.3112009 108.09338794 -14.32993742 101.45711066 -14.34119225 94.8208046 C-14.35742981 85.30878838 -14.39059993 75.79718078 -14.44759309 66.28531861 C-14.48629514 59.59819095 -14.50582528 52.91117256 -14.51111281 46.22393584 C-14.51476622 42.22959249 -14.52678546 38.23568484 -14.55921555 34.24146271 C-14.58930098 30.48206271 -14.59560685 26.7233619 -14.58383179 22.96386719 C-14.58361108 21.58601016 -14.59191415 20.20812067 -14.60948563 18.83037567 C-14.75057744 7.12817177 -14.75057744 7.12817177 -11.58853149 3.19573975 C-7.57241014 -0.21096297 -5.27503529 -0.43958627 0 0 Z " fill="#678D98" transform="translate(482,13)"/>
<path d="M0 0 C2.95697372 2.04713565 4.42101934 3.25341266 6.25 6.25 C6.86255365 9.83168075 6.71363886 13.43395126 6.6875 17.0625 C6.70748047 18.03509766 6.72746094 19.00769531 6.74804688 20.00976562 C6.74378709 26.30147241 6.02517792 30.16025119 2.25 35.25 C-2.87475985 39.72126699 -9.1739916 40.58484038 -15.765625 40.4609375 C-20.50042197 39.95763231 -23.56322348 37.69236885 -26.5625 34.1875 C-28.75 31.25 -28.75 31.25 -29.75 29.25 C-56.81 28.92 -83.87 28.59 -111.75 28.25 C-111.75 22.97 -111.75 17.69 -111.75 12.25 C-71.655 11.755 -71.655 11.755 -30.75 11.25 C-30.09 8.94 -29.43 6.63 -28.75 4.25 C-22.46075002 -3.56338577 -8.6641913 -4.12966127 0 0 Z " fill="#FEDECE" transform="translate(416.75,71.75)"/>
<path d="M0 0 C0.9075 0.60585937 1.815 1.21171875 2.75 1.8359375 C6.36390246 4.24745249 6.36390246 4.24745249 10 6.625 C10.61875 7.02976563 11.2375 7.43453125 11.875 7.8515625 C18.65503736 11.51577387 25.54236882 11.4381798 33.03808594 11.48046875 C35.09998837 11.49976592 37.15779128 11.56182885 39.21875 11.625 C51.2738556 11.81637536 60.16927308 8.11472203 69 0 C69.33 0 69.66 0 70 0 C70.89429516 16.05756644 68.46991336 29.56655549 59 43 C58.401875 43.9075 57.80375 44.815 57.1875 45.75 C51.47921621 51.62137761 44.1458227 56.25190808 35.8125 56.375 C28.27030739 56.2225298 21.04606766 53.80958689 15.4296875 48.58984375 C5.26413699 37.28552939 -0.46707943 23.18306384 -0.125 8 C-0.11597656 7.22527344 -0.10695312 6.45054687 -0.09765625 5.65234375 C-0.07439388 3.76809157 -0.0385364 1.88400168 0 0 Z " fill="#FEDECE" transform="translate(221,150)"/>
<path d="M0 0 C1.32837891 -0.08701172 1.32837891 -0.08701172 2.68359375 -0.17578125 C9.10507551 -0.30019148 9.10507551 -0.30019148 12.05957031 2.37988281 C16.6310335 8.41421421 17.33068126 12.46269121 17.375 19.875 C17.395625 20.72191406 17.41625 21.56882812 17.4375 22.44140625 C17.4696438 27.60852152 17.01119436 31.15956721 14.125 35.625 C10.08875431 39.66124569 6.76668795 41.68471868 1.125 42.625 C-4.71715982 42.61571199 -9.97197034 42.01042524 -14.875 38.625 C-18.875 33.46710526 -18.875 33.46710526 -18.875 30.625 C-26.795 30.625 -34.715 30.625 -42.875 30.625 C-42.875 25.345 -42.875 20.065 -42.875 14.625 C-35.285 14.625 -27.695 14.625 -19.875 14.625 C-19.545 12.315 -19.215 10.005 -18.875 7.625 C-13.29587841 0.83958185 -8.32877137 0.18027644 0 0 Z " fill="#FEDFCF" transform="translate(86.875,69.375)"/>
<path d="M0 0 C7.59 0 15.18 0 23 0 C33.46826864 42.39648799 33.46826864 42.39648799 28.375 53.5625 C20.29722825 61.85284469 20.29722825 61.85284469 14.45629883 62.11352539 C12.97166138 62.10567017 12.97166138 62.10567017 11.45703125 62.09765625 C10.38388672 62.09443359 9.31074219 62.09121094 8.20507812 62.08789062 C7.08552734 62.07951172 5.96597656 62.07113281 4.8125 62.0625 C3.68134766 62.05798828 2.55019531 62.05347656 1.38476562 62.04882812 C-1.41020927 62.03703498 -4.2050782 62.0205765 -7 62 C-5 60 -5 60 -1.625 58.375 C2.80396925 55.8600112 4.50006102 52.77736075 6 48 C7.17309092 38.89051063 4.6825614 29.54408105 3 20.625 C2.56903266 18.30867105 2.14063506 15.99191803 1.71606445 13.67440796 C1.45311204 12.24234731 1.18621597 10.81100342 0.91479492 9.38052368 C0.31818795 6.16155699 0 3.2931719 0 0 Z " fill="#4E737C" transform="translate(173,437)"/>
<path d="M0 0 C2.87557703 -0.08138426 5.74882262 -0.14067851 8.625 -0.1875 C9.43324219 -0.21263672 10.24148437 -0.23777344 11.07421875 -0.26367188 C16.1656522 -0.32576253 19.5827746 0.18106837 24 3 C28.00247304 7.00247304 28.91484446 10.38111229 29.04663086 15.98168945 C29.01869124 18.15921761 28.92524874 20.32528692 28.8125 22.5 C28.79380859 23.23347656 28.77511719 23.96695313 28.75585938 24.72265625 C28.43229186 31.06912077 26.21836649 34.84001158 21.625 39.3125 C19 41 19 41 13 42 C13 46.62 13 51.24 13 56 C8.4788042 56.08111115 3.95907158 56.14056327 -0.5625 56.1875 C-1.83931641 56.21263672 -3.11613281 56.23777344 -4.43164062 56.26367188 C-11.04081154 56.31517191 -16.1982641 56.32400207 -22 53 C-22 48.38 -22 43.76 -22 39 C-20.329375 39.5259375 -20.329375 39.5259375 -18.625 40.0625 C-12.23135138 41.63823964 -6.40623931 41.26874436 -0.5625 38.1875 C3.22114936 34.95755542 5.72040458 32.14265248 6.17700195 27.01049805 C6.24352252 24.56937863 6.28485613 22.12937492 6.3125 19.6875 C6.35600586 18.42389648 6.35600586 18.42389648 6.40039062 17.13476562 C6.45766206 11.50013717 5.6139813 8.5392678 2 4 C1.30570621 2.6808418 0.62469505 1.35350594 0 0 Z " fill="#FECEBF" transform="translate(97,70)"/>
<path d="M0 0 C7.33837079 -2.16907933 14.91521004 -3.46402843 22 0 C30.30438444 7.86926296 35.29186222 20.04914739 40.14691162 30.23236084 C40.96938444 31.93656313 41.83636188 33.61906628 42.70483398 35.30029297 C45.2915294 40.69212668 44.73021869 46.72343585 42.9375 52.3125 C39.78865584 56.68025158 36.15929816 60.28023395 31 62 C29.22686149 62.08209792 27.45079225 62.10746294 25.67578125 62.09765625 C24.13374023 62.09282227 24.13374023 62.09282227 22.56054688 62.08789062 C21.48869141 62.07951172 20.41683594 62.07113281 19.3125 62.0625 C18.22904297 62.05798828 17.14558594 62.05347656 16.02929688 62.04882812 C13.35280915 62.03703743 10.67643223 62.02058063 8 62 C10 60 10 60 13.375 58.375 C17.77783377 55.87485223 19.55058813 52.78139319 21 48 C22.9070867 40.50595507 19.80009677 34.9459681 16.06591797 28.61865234 C14.72374711 26.40414813 13.36186693 24.20244069 12 22 C10.35258614 19.28389848 8.71234284 16.56360967 7.07519531 13.84130859 C5.99421958 12.04838432 4.90645197 10.25953524 3.81152344 8.47509766 C3.31555664 7.66089355 2.81958984 6.84668945 2.30859375 6.0078125 C1.64041626 4.91944092 1.64041626 4.91944092 0.95874023 3.80908203 C0 2 0 2 0 0 Z " fill="#4E737C" transform="translate(341,437)"/>
<path d="M0 0 C0 5.61 0 11.22 0 17 C-27.06 17 -54.12 17 -82 17 C-82 11.72 -82 6.44 -82 1 C-71.45618297 0.86955101 -60.9123653 0.73915371 -50.36854649 0.60884857 C-45.47315493 0.54834709 -40.57776367 0.48782253 -35.68237305 0.42724609 C-30.96212263 0.36883771 -26.24187147 0.31048882 -21.5216198 0.25218201 C-19.71661286 0.22987508 -17.9116062 0.20754635 -16.10659981 0.18519592 C-13.58742466 0.15400598 -11.06824858 0.12289207 -8.54907227 0.09179688 C-7.79525772 0.08244614 -7.04144318 0.0730954 -6.26478577 0.0634613 C-1.11405216 0 -1.11405216 0 0 0 Z " fill="#DFF5FC" transform="translate(387,83)"/>
<path d="M0 0 C27.06 0 54.12 0 82 0 C82 5.28 82 10.56 82 16 C54.94 16 27.88 16 0 16 C0 10.72 0 5.44 0 0 Z " fill="#DFF5FC" transform="translate(125,84)"/>
<path d="M0 0 C0.19335938 0.79664063 0.38671875 1.59328125 0.5859375 2.4140625 C2.17142912 8.96810583 2.17142912 8.96810583 4.25 15.375 C5.7033463 20.46171204 4.10260962 23.91748286 1.6875 28.375 C-4.72733696 40.83279931 -5.68134746 54.23421006 -6 68 C-7.9151579 68.81604999 -9.83218834 69.62770632 -11.75 70.4375 C-12.81734375 70.88996094 -13.8846875 71.34242188 -14.984375 71.80859375 C-17.3413841 72.73979553 -19.52992835 73.4784072 -22 74 C-22.4508837 53.03390811 -21.43792583 32.60870318 -12.125 13.4375 C-11.80966309 12.78241455 -11.49432617 12.1273291 -11.16943359 11.45239258 C-9.02799899 7.28920755 -5.16337675 0 0 0 Z " fill="#FD7E44" transform="translate(325,189)"/>
<path d="M0 0 C7.59 0 15.18 0 23 0 C23 5.28 23 10.56 23 16 C15.08 16 7.16 16 -1 16 C-0.67 10.72 -0.34 5.44 0 0 Z " fill="#DFF5FC" transform="translate(445,84)"/>
<path d="M0 0 C7.59 0 15.18 0 23 0 C23.495 7.92 23.495 7.92 24 16 C16.08 16 8.16 16 0 16 C0 10.72 0 5.44 0 0 Z " fill="#DFF5FC" transform="translate(44,84)"/>
<path d="M0 0 C3.63 0 7.26 0 11 0 C11.70125 1.52625 12.4025 3.0525 13.125 4.625 C14.84330972 8.15049752 16.32990932 10.53831454 19.375 13 C22 16 22 16 22.2265625 18.48046875 C21.86889908 22.75393002 21.40993723 25.38509415 19 29 C10.16795022 22.01046401 3.78057509 13.67456495 0 3 C0 2.01 0 1.02 0 0 Z " fill="#FE7E44" transform="translate(200,119)"/>
<path d="M0 0 C2.52982348 0.02143918 4.84942911 0.21719325 7.328125 0.7109375 C6.01669683 11.00640235 -0.1527812 19.75686231 -7.671875 26.7109375 C-9.3109858 27.75549175 -10.97212434 28.76826816 -12.671875 29.7109375 C-15.29874067 20.02437034 -15.29874067 20.02437034 -14.671875 16.7109375 C-12.609375 14.5859375 -12.609375 14.5859375 -11.2109375 13.37890625 C-9.13707763 11.13134746 -7.93598593 8.58494966 -6.484375 5.8984375 C-3.46994159 0.92328855 -3.46994159 0.92328855 0 0 Z " fill="#FE7E44" transform="translate(304.671875,118.2890625)"/>
<path d="M0 0 C2.5625 1.5625 2.5625 1.5625 4 3 C3.38721191 3.24999756 2.77442383 3.49999512 2.14306641 3.75756836 C-0.3717341 5.21551092 -1.01538102 6.29956678 -2.2890625 8.87890625 C-2.67320312 9.63494141 -3.05734375 10.39097656 -3.453125 11.16992188 C-3.83984375 11.95947266 -4.2265625 12.74902344 -4.625 13.5625 C-5.40372722 15.12886146 -6.18734581 16.69280365 -6.9765625 18.25390625 C-7.48823975 19.29526733 -7.48823975 19.29526733 -8.01025391 20.35766602 C-9 22 -9 22 -11 23 C-11.82101314 20.8156809 -12.63142482 18.62737564 -13.4375 16.4375 C-13.88996094 15.21933594 -14.34242188 14.00117188 -14.80859375 12.74609375 C-15.97885142 9.06649667 -16.57261353 5.81700334 -17 2 C-10.99363737 -0.73016483 -6.47382172 -1.71702541 0 0 Z " fill="#FFCEBE" transform="translate(341,186)"/>
</svg>
